<svg xmlns="http://www.w3.org/2000/svg" viewBox="0 0 64 64" id="blog"><path fill="#eff3f5" d="M54.9 62.09H3c-1.44 0-2.61-1.17-2.61-2.61V7.58C.39 6.14 1.56 4.97 3 4.97h51.9c1.44 0 2.61 1.17 2.61 2.61v51.9c0 1.44-1.17 2.61-2.61 2.61z"></path><path fill="#c6c1c1" d="M57.51 59.49v1.91c0 1.44-1.16 2.6-2.6 2.6H3C1.56 64 .4 62.84.4 61.4v-1.91c0 1.44 1.16 2.6 2.6 2.6h51.9a2.61 2.61 0 0 0 2.61-2.6z"></path><path fill="#d3d3d3" d="M15.88 47.73h19.44l22.19-7.6V15.32z"></path><path fill="#bdbdbe" d="M8.49 17.54H49.4v2.54H8.49zM8.49 27.35H49.4v2.54H8.49zM8.49 37.16H49.4v2.54H8.49zM8.49 46.98H49.4v2.54H8.49z"></path><path fill="#fcd66f" d="M32.05 41.75c-.12.08-.24.15-.37.19-.09.05-.18.08-.27.1l-10.62 3.99-3.21-3.21 3.98-10.62c.03-.09.06-.19.1-.28.05-.13.12-.25.2-.37l10.19 10.2z"></path><path fill="#fbd984" d="m18.67 43.92-1.1-1.1 3.98-10.62c.03-.09.06-.19.1-.28.05-.13.12-.25.2-.37l3.91 2.86-7.09 9.51z"></path><path fill="#e6ac43" d="M32.05 41.75c-.12.08-.24.15-.37.19-.09.05-.18.08-.27.1l-10.62 3.99-1.1-1.1 9.51-7.1 2.85 3.92z"></path><path fill="#fcd66f" d="m29.19 37.84-9.5 7.1-3.81 2.79 2.79-3.81 7.1-9.5z"></path><path fill="#2e435a" d="m15.88 47.73 4.9-1.69-3.21-3.21z"></path><path fill="#324a5e" d="M56.03 17.86 32.46 41.43c-.13.13-.26.24-.4.32-.12.08-.24.15-.37.19-.09.05-.18.08-.27.1-.82.23-1.73.03-2.38-.62-.7-.7-.88-1.71-.55-2.58.05-.16.13-.31.23-.45.09-.14.19-.28.32-.4l23.57-23.57 3.42 3.44z"></path><path fill="#445b69" d="M25.6 34.58 49.18 11l3.43 3.43-23.58 23.58c-.95.95-2.48.95-3.43 0-.94-.95-.94-2.48 0-3.43z"></path><path fill="#445b69" d="M49.18 11 25.6 34.58c-.13.13-.26.24-.4.32a2.42 2.42 0 0 1-3.64-2.69c.03-.09.06-.19.1-.28.05-.13.12-.25.2-.37.08-.15.19-.28.32-.4L45.75 7.58 49.18 11z"></path><path fill="#687d87" d="M49.33 11.16 25.05 35.44c.12-.31.3-.61.55-.86L49.18 11l.15.16zM28.49 38.85l24.27-24.27-.15-.15-23.58 23.58z"></path><path fill="#dededf" d="m52.755 14.582 2.97-2.97L59 14.887l-2.97 2.97z"></path><path fill="#e5e5e5" d="m49.331 11.164 2.97-2.97 3.274 3.274-2.97 2.97z"></path><path fill="#eff3f5" d="m45.749 7.573 2.97-2.97 3.43 3.43-2.97 2.97z"></path><path fill="#dededf" d="m49.177 11.005 2.97-2.97.156.156-2.97 2.97zM52.61 14.431l2.97-2.97.148.149-2.97 2.97z"></path><path fill="#a72a45" d="M63.17 10.72 59 14.89l-3.28-3.28 5.22-5.22 2.23 2.23c.58.58.58 1.52 0 2.1z"></path><path fill="#d1395d" d="m52.3 8.2 5.217-5.218 3.274 3.273-5.218 5.219z"></path><path fill="#df4666" d="M57.52 2.97 52.3 8.19l-3.58-3.58L52.89.44c.58-.58 1.51-.58 2.1 0l2.53 2.53zM55.572 11.46l5.219-5.22.148.15-5.218 5.218z"></path><path fill="#a72a45" d="m52.14 8.034 5.218-5.218.156.155-5.218 5.219z"></path><path fill="#621a21" d="m55.572 11.46 5.219-5.22.148.15-5.218 5.218z"></path><path fill="#c6c1c1" d="m53.78 13.557.913-.912 3.274 3.274-.912.912z"></path><path fill="#d3d3d3" d="m50.364 10.134.913-.912 3.273 3.274-.912.912z"></path><path fill="#dededf" d="m46.772 6.546.912-.913 3.43 3.43-.912.912z"></path><path fill="#bdbdbe" d="m50.203 9.98.912-.911.156.155-.912.912zM53.635 13.406l.912-.912.149.148-.912.912z"></path><path fill="#c6c1c1" d="m49.177 11.005 2.97-2.97.156.156-2.97 2.97z"></path><path fill="#bdbdbe" d="m52.61 14.431 2.97-2.97.148.149-2.97 2.97z"></path></svg>