<svg xmlns="http://www.w3.org/2000/svg" enable-background="new 0 0 1600 1200" viewBox="0 0 1600 1200" id="blog"><g><path fill="#1e1c1a" d="M711.3 453.6c-21.4 8.6-42.2 16.9-61.8 37.6-23.6 25-32.6 55.1-40.1 80.2-6 20.1-8.9 37.3-10.3 49.1 4.4-.9 25.1-4.9 42.8 7.9 6.3 4.6 10.4 10 13 14.2 2.1-19.3 4.3-38.6 6.4-58 1.8-2.1 3.6-4.3 5.4-6.4 11.6 20.1 18.6 38.1 23.1 51.6 7.9 24.1 11.1 44.8 13.3 59.9 1.2 8.3 2 15.2 2.5 20.1 59.3-1.3 102.7-.6 136.2.9 16.1.7 35.7 1.8 49.1-10.8 13.8-12.9 21.5-40.6 25-53.4 3.4-12.4 4.5-20.6 10.9-23.4 7.8-3.4 18.5 3.3 26.9 10.2.1-.5.2-1.1.3-2 1.5-9.2 6.5-42.5 2.8-72.5-2-16.2-7.3-60.8-41.7-90.2-13.1-11.2-25.6-16-38.4-20.9-73.6-27.6-144.9-2.3-165.4 5.9z"></path><path fill="#e2b97f" d="M687.1 397.2c.2 2.4.4 5.1.6 5.1.7 0-5.6-31.4 2.5-60.7 7.9-28.7 30.7-59.2 63.9-70.2 11.3-3.7 21.2-4.4 27.8-4.4-6.4-10.1-5.1-12.6-4.4-13.3 2.8-3.1 13.9-1.4 19.6 5.1 3.4 3.9 3.9 8.4 6.8 8.6 1.9.1 2.9-1.6 5.4-4 5.4-5.1 13.7-9.1 20.8-7.8 2.6.5 5.7 1.8 5.7 3.2-.1 2.5-11.4 2-15.2 8.9-1.2 2.2-1.3 4.4-1.2 5.8 3.8-1 9.9-2.1 17.1-.7 15.3 3 26.7 15.5 25.4 17.8-.4.6-2.1.8-7.4-1 5.3 3.6 13.5 10.1 20.9 20.3 14.2 19.7 19 44.5 16.1 45.9-.8.3-2-.9-4.2-3.3-7.9-8.4-10.3-17.1-11-16.9-1 .3 7.1 21.7 7 45.6 0 3.8-.5 41.5-17.1 47.5-7.5 2.7-13.8-2.8-24-7.6-23.1-10.8-59.9-9.8-133.5-7.6-3.7.1-13.3.4-18.3-5.7-2.9-3.9-3.3-8-3.3-10.6z"></path><path fill="#e0af90" d="M576.4 985.8c10.6 5.9 22 12.9 33.8 21.1 12.5 8.7 23.6 17.5 33.3 25.8 15.3-10.1 25.8-16.5 33.5-20.4 2.1-1 6.5-3.2 6.8-6.8.4-3.9-4.2-7.1-5.6-8.1-13.1-17.7-28.7-35.3-47.1-52-1.9-1.7-3.7-3.3-5.6-5-1.3 4-3.1 8.2-5.6 12.4-12.4 21.6-34.1 30-43.5 33zM861.1 1005c-.7 7.2-2.8 33 8.7 38.4 3.1 1.5 6.2 1 8.1.6 45.9-8.3 78.7-29.1 78.7-29.1 4.8-3.1 12-7.8 20.4-14.2-5.3-3.4-15.7-11.1-23.5-24.8-7.8-13.7-9.1-26.5-9.3-32.8-9 9.3-19.7 19.2-32.2 29.1-18.2 14.2-35.7 24.8-50.9 32.8zM599.6 620.8c.2 11.9 1.5 26.8 5.6 43.4 5.3 21.8 13.4 39.1 20.4 51.4 15.9-1.7 31.8-3.3 47.7-5 .3-5.2.1-11.6-1.2-18.6-3.3-17.5-11.9-29.9-17.3-36.6l-1.2-19.8c-3.1-2.9-7-6-11.8-8.7-17.3-9.4-34.8-7.4-42.2-6.1zM903.8 620.8c6.2-1.5 18.6-3.5 31.6 1.9 3.1 1.3 5.8 2.8 8.1 4.3 0 12.3-1.9 22.5-3.7 29.7-1.9 7.5-7 24.2-19.8 41.5-4.1 5.6-8.1 9.9-11.2 13l-57.6-1.2c2-5.5 5-12 9.3-18.6 11.1-16.9 25.4-26.2 34.1-31 .8-5.2 1.8-10.5 3-16.1 1.8-8.4 4-16.2 6.2-23.5zM690.3 408.8c-1.5 3-3.8 8.6-3.1 15.5.7 6.7 4.6 16.4 10.6 17.4 2.8.5 4.9-1.1 7.9.4 2.3 1.2 3.4 3.3 4 4.4 2.7 5.1 6.7 9.3 9.3 14.5 3.7 7.5 20.3 26.5 44.8 33.6 27 7.7 49.7-2.4 56.6-5.6 29.2-13.6 41.2-39.1 44.1-46 1.8 1 6.7 3.1 12.4 1.9 8.5-1.9 15.3-10.6 14.3-19.3-.9-7.5-7.7-14.5-12.4-13.7-4.4.8-4.2 7.8-9.3 9.9-2.8 1.2-5.9 0-18.7-7.5-9-5.3-13.5-7.9-15.8-9.6-14.6-11-20.6-23-22.1-22.1-2 1.1 9.6 21.1 6.8 23-2.5 1.7-16.6-11.9-26.7-28-2.5-4-4.3-7.4-5.6-9.9-3.9 3.7-9.6 8.6-16.8 13.9-6.6 4.8-14.7 10.6-26.1 15.3-10.5 4.3-22.1 6.9-23 5-.8-1.9 10.2-5.6 17.4-17.4 5.4-8.7 6.6-18.5 5-19.3-1.9-.9-7.3 11.1-22.4 26.7-4.6 4.8-7.3 6.9-9.9 8.7-8.2 5.5-16.1 7.4-21.3 8.2z"></path><path fill="#e0af90" d="M754.8 474.9c2.5 12.3 6.3 21.8 9.4 28.3 6 12.4 10.2 21.2 18.9 23.3 8.7 2.1 16.7-3.8 18.3-5 10.7-7.9 14.9-23.5 11.6-39.9-19.4-2.2-38.8-4.5-58.2-6.7z"></path><path fill="#ff4f03" d="M657.3 899c-7.5-21.8-14.8-47.1-20.3-75.6-6.6-34.1-9.4-65-10.2-91.4 14.6-1.8 34.7-4 58.7-5.6 66.8-4.5 102.5-.4 194.1-1.1 15.8-.1 36.5-.4 60.9-1.1-2.8 39.6-5.5 79.4-7.9 119.6-1.2 19.6-2.3 39.2-3.4 58.7-40 3.6-72.3 5-94.8 5.6-30.3.9-31.2-.1-60.9 1.1-33.1 1.3-44.7 3-64.3 1.1-22.6-2.1-40.6-7.3-51.9-11.3z"></path><ellipse cx="784.7" cy="798.4" fill="#e5d2cc" rx="28.9" ry="33.1"></ellipse><path fill="#ff4f03" d="M603.3 1130.6c1.3-15.1 4.4-27.5 7.1-36.3 5.6-17.9 12.3-28.6 25.6-49.9 6.6-10.6 14.2-21.7 19-20.2 3 .9 3 6.2 5.4 6.5 3.2.4 3.8-11.8 11.9-23.2 3-4.2 6.1-7.1 8.3-8.9 7.2 6.1 15.2 12.2 23.8 18.4 6.3 4.5 12.4 8.7 18.4 12.5-3.6 3.5-9.1 8.5-16.1 14.3-11.6 9.6-19.7 14.8-26.8 19.6-15.9 11-29.8 23.8-57.7 49.3-7.9 7.5-14.5 13.7-18.9 17.9zM850.6 1007.5c-3 4.6-6.6 11.8-7.1 20.8-.5 9.6 2.8 16.3 10.1 32.7 11.7 26.4 10 24.7 13.1 30.3 10 18.4 24.5 28.1 52.3 48.2 4.4 3.1 9.1 6.4 11.9 4.8 2.8-1.6 2.3-7.5-3-29.7 0 0-8.8-36.9-20.2-53.5-3.3-4.8-6.5-7.2-8.3-8.3-2.9-1.8-5.5-2.7-8.3-3.6-2.9-.9-7.2-2-12.5-2.4-.6-6-1.3-11.1-1.8-14.9-1.7-12.1-3.1-17.6-5.9-23.2-2.1-4-3.5-6.8-6.5-7.7-6.4-2-13.4 6-13.8 6.5z"></path><path stroke="#000" stroke-miterlimit="10" stroke-width="1.5" d="M865.1 442c.2.1 0 .8-.3 2.2-.2.7-.4 1.5-.7 2.5-.4 1-.8 2.1-1.3 3.4-.5 1.3-1.2 2.6-1.9 4.1-.7 1.5-1.7 3-2.7 4.7-.5.8-1.1 1.7-1.7 2.5-.6.8-1.2 1.7-1.9 2.6-1.4 1.7-2.8 3.6-4.5 5.3-1.6 1.9-3.5 3.6-5.4 5.5-1 .9-2 1.8-3.1 2.7-1 .9-2.2 1.7-3.3 2.6-4.6 3.5-9.8 6.8-15.6 9.7-1.5.7-2.9 1.5-4.4 2.1-1.5.7-3 1.4-4.6 1.9-3.2 1.3-6.4 2.4-9.8 3.3-6.8 1.9-14.1 3.2-21.7 3.2-3.8 0-7.5-.3-11.2-.9-3.6-.6-7.2-1.4-10.6-2.6-6.8-2.2-13-5.2-18.5-8.7-5.5-3.5-10.2-7.5-14.3-11.6-4-4.1-7.4-8.3-10.1-12.4-5.5-8.1-8.7-15.3-10.5-20.4-1.8-5.1-2.4-8-2.1-8.1.3-.1 1.5 2.6 3.9 7.4 2.3 4.8 5.9 11.6 11.6 19.1 2.8 3.8 6.2 7.7 10.2 11.5 4 3.8 8.6 7.5 13.8 10.7 5.2 3.2 11.1 6 17.5 8 3.2 1 6.5 1.8 9.9 2.3 3.4.5 6.9.9 10.4.8 7 0 13.9-1.1 20.4-2.9 3.2-.9 6.4-1.9 9.4-3.1 1.5-.5 3-1.2 4.5-1.8 1.5-.6 2.9-1.3 4.3-1.9 5.6-2.7 10.7-5.7 15.1-8.9l3.3-2.4c1-.8 2.1-1.7 3-2.5 1.9-1.7 3.8-3.3 5.4-5 6.7-6.6 10.8-13.1 13.4-17.7.6-1.2 1.2-2.2 1.7-3.1.4-.9.8-1.7 1.2-2.3.6-1.2 1-1.8 1.2-1.8z"></path><path stroke="#000" stroke-miterlimit="10" stroke-width="1.5" d="M807.2 465.6c.4.5-1.2 3.1-4.8 6.5-1.8 1.7-4.1 3.6-6.9 5.4-2.8 1.8-6.2 3.4-10.1 4.3-3.9.9-7.8 1-11.2.4-3.4-.6-6.4-1.8-8.5-3.2-2.2-1.4-3.7-3-4.5-4.2-.8-1.2-1-2-.7-2.2.6-.5 2.7 1.7 6.8 3.3 2 .9 4.6 1.5 7.5 1.8 2.9.3 6.1.1 9.4-.7 6.6-1.7 12.1-5.1 16-7.7 4.1-2.5 6.6-4.2 7-3.7zM777.6 459.7c-.2.6-1.5.9-3.4.2s-4.2-2.7-5.2-5.8c-1-3.1-.4-6.1.7-7.8 1.1-1.7 2.3-2.3 2.8-1.9.6.4.5 1.5.5 3s.1 3.3.7 5.1c.6 1.8 1.7 3.3 2.6 4.5.7 1.2 1.5 2.1 1.3 2.7zM751 437c-.5.5-1.6.3-2.9-.7-1.3-1-2.8-2.8-3.6-5.2-.8-2.4-.9-4.7-.5-6.3.4-1.6 1.1-2.5 1.8-2.4.7.1 1.2 1 1.7 2.3.5 1.3 1 3 1.7 4.8.7 1.8 1.3 3.4 1.8 4.8.3 1.2.5 2.3 0 2.7zM808 437.5c-.5-.4-.4-1.4-.1-2.7.3-1.3.9-2.8 1.5-4.5.6-1.7 1.2-3.2 1.8-4.4.6-1.2 1.2-1.9 1.9-1.9s1.3.9 1.6 2.4c.3 1.5.1 3.6-.7 5.7-.8 2.1-2.1 3.8-3.3 4.7-1.1.9-2.1 1.2-2.7.7zM754.8 411.4c-.3.6-1.8.4-4 .3-2.2-.1-5.1-.1-8.1.6-1.5.4-2.9.9-4.2 1.5-.6.3-1.2.6-1.7.9-.4.2-.8.5-1.2.8-.7.6-1 1-1.2 1.5-.2.5-.2.9-.5 1-.3.1-.9 0-1.4-.8-.2-.4-.4-1-.3-1.7 0-.7.2-1.4.6-2.1.3-.7.8-1.4 1.5-2 .6-.6 1.2-1.1 2-1.6 1.5-1 3.3-1.8 5.3-2.3 4-1 7.8-.3 10.2.8 2.3 1.2 3.3 2.6 3 3.1zM824.7 414.7c-.5.5-1.9-.3-3.8-1.6s-4.4-3.1-7.2-4.1c-2.7-.9-5.5-.8-7.4-.3-1.9.5-3.1 1.4-3.7 1-.3-.2-.3-.7-.1-1.4.3-.8 1-1.7 2.1-2.6 2.3-1.8 6.4-2.8 10.6-1.3 2 .7 3.7 1.8 5 2.9 1.3 1.1 2.3 2.3 3 3.3 1.5 2.1 2 3.7 1.5 4.1zM681.9 421.2c.7.2.3 2.6.8 6 .2 1.7.7 3.7 1.6 5.8.4 1 1 2.1 1.6 3.1.7 1 1.4 2 2.3 2.9 3.5 3.7 8.2 4.8 11.5 4.5 3.3-.2 5.1-1.8 5.6-1.3.1.1.1.3.1.6-.1.3-.3.8-.7 1.2-.7 1-2.2 2.1-4.3 2.8-2.1.7-4.8.8-7.6.1-1.4-.3-2.8-.9-4.2-1.7-1.4-.8-2.6-1.8-3.8-3-1.2-1.2-2.1-2.5-2.9-3.8-.7-1.3-1.4-2.7-1.8-4-.9-2.7-1.1-5.2-.9-7.3.2-2.1.8-3.7 1.3-4.7.6-.8 1.1-1.3 1.4-1.2zM888.1 420.3c.3-.1.9.3 1.5 1.4.6 1 1.3 2.7 1.5 4.9.3 2.2.2 4.8-.6 7.7-.8 2.8-2.4 5.9-4.8 8.3-2.4 2.5-5.3 4.2-8.1 5.1-2.8.9-5.5 1.1-7.7.9-2.2-.2-3.9-.8-5-1.4-1.1-.6-1.5-1.2-1.4-1.5.3-.6 2.6 0 6.3-.5 1.8-.2 3.9-.7 6.1-1.7 2.2-.9 4.4-2.4 6.2-4.3 1.9-1.9 3.2-4.1 4-6.3.9-2.2 1.2-4.4 1.4-6.2.5-3.7-.1-6.1.6-6.4zM699.7 428.4c-.7.2-1.5-.6-2.3-1.8-.8-1.2-1.8-2.7-2.9-3.6-.4-.3-1-.6-1.5-.8-.6-.2-1.1-.2-1.6-.2s-.9 0-1.3.2c-.4.1-.8.2-1.1.1-.3-.1-.6-.5-.5-1.1 0-.6.4-1.5 1.3-2.2.9-.7 2.1-1.2 3.5-1.2s3 .4 4.4 1.5c1.2 1 2 2.3 2.4 3.4.4 1.1.6 2.1.6 3 0 1.6-.4 2.6-1 2.7z"></path><path stroke="#000" stroke-miterlimit="10" stroke-width="1.5" d="M692.7 434.9c-.6.1-1.4-.3-1.9-1.4-.4-1.1-.4-2.8.4-4.4.8-1.6 2.2-2.6 3.3-2.9 1.2-.3 2 .1 2.2.7.3.6.1 1.4-.2 2.1-.3.7-.6 1.5-1 2.3-.4.8-.8 1.5-1.3 2.2-.3.7-.8 1.3-1.5 1.4zM869.8 435.5c-.6-.1-1.2-1.2-1.2-3.1 0-1.9.8-4.4 2.5-6.7s3.9-3.7 5.7-4.3c1.8-.6 3-.4 3.3.3.3.6-.4 1.5-1.4 2.7-1 1.1-2.3 2.6-3.6 4.3-1.3 1.7-2.3 3.4-3.1 4.7-.9 1.2-1.6 2.1-2.2 2.1z"></path><path stroke="#000" stroke-miterlimit="10" stroke-width="1.5" d="M876.7 437.1c-.7-.1-1.2-.6-1.7-.9-.5-.3-.9-.6-1.2-1-.3-.4-.5-.8-.8-1.3-.2-.5-.5-1.1-.6-1.8 0-.7.5-1.3 1.6-1.5 1-.2 2.5.3 3.5 1.5s1.2 2.7.9 3.7c-.3 1-1 1.4-1.7 1.3zM679 398.4c-.3.1-.9-1.4-1.7-4-.2-.7-.4-1.4-.6-2.2-.2-.8-.3-1.7-.5-2.7-.3-1.9-.8-4.2-1-6.6-.1-1.2-.2-2.5-.4-3.9-.1-1.4-.1-2.8-.2-4.2-.2-2.9 0-6.1.2-9.4.5-6.6 1.5-13.8 3.3-21.2 1.9-7.4 4.5-14.2 7.3-20.2 1.5-2.9 2.8-5.8 4.4-8.3.8-1.3 1.4-2.5 2.2-3.6.8-1.1 1.5-2.2 2.2-3.2 1.4-2.1 2.8-3.8 4-5.3.6-.8 1.2-1.5 1.8-2.1.6-.6 1.1-1.2 1.6-1.7 2-2 3.1-3 3.4-2.7.3.2-.4 1.6-1.9 3.9-.4.6-.8 1.2-1.2 1.9-.4.7-.9 1.5-1.4 2.3-1 1.7-2.2 3.5-3.3 5.6-.6 1-1.2 2.1-1.9 3.3-.6 1.1-1.2 2.4-1.9 3.7-1.3 2.5-2.5 5.3-3.8 8.2-2.4 5.9-4.8 12.4-6.7 19.5-1.8 7.1-2.9 14-3.6 20.3-.2 3.2-.6 6.2-.6 9 0 1.4-.1 2.8-.1 4.1v3.8c0 2.4.2 4.6.2 6.5 0 1 .1 1.9.1 2.7.1.8.1 1.6.2 2.3.2 2.5.2 4.1-.1 4.2z"></path><path stroke="#000" stroke-miterlimit="10" stroke-width="1.5" d="M693.5 373.1c.4.6-.7 2-2.3 4.1-.8 1.1-1.8 2.3-2.7 3.8-1 1.4-2 3-2.9 4.8-.9 1.8-1.7 3.5-2.3 5.1-.6 1.6-1.2 3.1-1.6 4.4-.8 2.5-1.4 4.2-2.1 4.2-.6 0-1.3-1.8-1.3-4.8 0-1.5.2-3.3.7-5.2.5-1.9 1.2-4 2.3-6 1.1-2 2.4-3.8 3.7-5.3 1.3-1.5 2.7-2.7 3.9-3.5 2.4-1.7 4.3-2.1 4.6-1.6zM703 415.9c-.6.4-1.9-.6-3.6-2.1-1.7-1.5-3.9-3.4-6.7-4.2-1.3-.4-2.6-.4-3.6-.2s-2 .8-2.7 1.3c-1.4 1.1-1.9 2.5-2.6 2.5-.3 0-.7-.4-.9-1.2-.2-.8 0-2.1.7-3.4.7-1.3 2-2.7 4-3.5 2-.8 4.3-.8 6.5-.2 2.1.6 3.9 1.8 5.2 3.1 1.3 1.3 2.2 2.6 2.8 3.7 1.2 2.2 1.5 3.8.9 4.2z"></path><path stroke="#000" stroke-miterlimit="10" stroke-width="1.5" d="M687.9 403.7c-.5.4-1.9-.2-3.4-2.1-.7-.9-1.4-2.1-2-3.6-.6-1.5-1-3.1-1.1-4.9-.1-1.8 0-3.5.4-5.1.4-1.5.9-2.8 1.5-3.9 1.2-2.1 2.5-2.9 3-2.6.6.3.5 1.7.3 3.7-.1 1-.2 2.1-.3 3.4 0 1.3 0 2.6.1 4.1.1 1.4.3 2.8.6 4 .3 1.2.5 2.3.8 3.3.3 1.9.6 3.3.1 3.7zM747.5 357.8c.5.4-1 3.9-4.3 9.1-1.6 2.6-3.7 5.6-6.2 8.9-2.5 3.2-5.4 6.7-8.6 10.1-3.2 3.4-6.5 6.5-9.5 9.2-3.1 2.7-6 5-8.5 6.8-5 3.6-8.5 5.3-8.8 4.8-.8-1.1 10.7-10.7 23.3-24.1 12.6-13.4 21.4-25.6 22.6-24.8z"></path><path stroke="#000" stroke-miterlimit="10" stroke-width="1.5" d="M787.7 365.5c.4.4-3.7 6.2-12.5 13.6-4.4 3.7-10 7.7-16.7 11.4-1.7.9-3.4 1.9-5.2 2.7-1.8.9-3.6 1.7-5.5 2.6-1.9.8-3.9 1.6-5.9 2.3-1 .4-2 .7-3.1 1.1-.5.2-1 .4-1.6.5-.7.2-1.4.4-2 .6l-1.5.5-1.5.4c-1 .3-1.9.5-2.8.7-1.9.4-3.7.8-5.5 1.3-1.9.4-3.7.8-5.5 1.2l-1.4.3-.7.1h-.4c-.5 0-.9.1-1.4.1 1.6-1.3 3.2-2.5 4.8-3.8.8-.7 1.7-1.3 2.5-2l.6-.5.5-.4 1-.9c.7-.6 1.4-1.2 2-1.7l1-.9.5-.4c.2-.1.2-.2.4-.4.9-1 1.8-1.9 2.6-2.8.5-.5.7-.8.9-1.1.2-.3.5-.6.7-.9.5-.6.9-1.2 1.4-1.8.9-1.2 1.7-2.4 2.5-3.6 3.1-4.8 5.3-9.5 7-13.4 3.4-7.9 5-12.9 5.6-12.7.5.1-.1 5.4-2.8 13.8-1.4 4.2-3.3 9.2-6.4 14.4-.8 1.3-1.6 2.6-2.5 4-.4.7-.9 1.3-1.4 2-.2.3-.5.7-.7 1-.2.3-.6.7-.6.8-.2.3-.5.6-.7.9-.2.2-.3.4-.5.5-.3.3-.6.6-.9.8l-.3.2-.1.1h.1l.2-.1c.3-.1.6-.1.9-.2.5-.2 1.1-.3 1.6-.5l1-.3c.5-.1 1-.3 1.5-.5 1-.3 2-.7 2.9-1 1.9-.7 3.8-1.4 5.7-2.2 1.8-.8 3.7-1.5 5.4-2.4 1.8-.8 3.4-1.6 5.1-2.5 6.5-3.3 12.1-7 16.7-10.2 9.5-6.3 14.5-11.2 15-10.7zM868 421.6c0 .2-.6.2-1.7.1-.5-.1-1.2-.1-2-.2-.4-.1-.8-.1-1.3-.2s-.9-.2-1.4-.3c-1-.2-2.1-.5-3.4-.8-1.2-.3-2.5-.8-3.9-1.3-1.4-.4-2.9-1.1-4.4-1.7-1.6-.6-3.2-1.4-4.9-2.2-1.7-.8-3.4-1.8-5.2-2.8-.9-.5-1.8-1.1-2.7-1.7l-2.7-1.8c-.9-.7-1.8-1.3-2.7-2-.5-.3-.9-.7-1.4-1-.4-.4-.9-.7-1.3-1.1-.9-.8-1.8-1.5-2.7-2.3-.9-.8-1.8-1.7-2.7-2.5-.9-.8-1.8-1.8-2.6-2.7-.9-.9-1.8-1.9-2.6-2.9s-1.7-2-2.5-3.1l-2.4-3.3c-3.1-4.5-5.9-9.4-8.3-14.7l4.7-1.3.2 1.1c1.6 11.2 5.4 21.4 10.3 29.8l4.5 7.7-7.6-4.6c-3.3-2-6.1-4.3-8.7-6.7-2.5-2.4-4.7-4.8-6.6-7.3-3.8-4.9-6.5-9.5-8.6-13.5-4.1-7.9-5.7-12.8-5.3-13 .5-.2 3 4.3 7.6 11.6 2.4 3.6 5.3 8 9.1 12.4 3.8 4.5 8.7 8.9 14.7 12.5l-3.1 3.1c-5.4-8.8-9.6-19.6-11.3-31.4l-.2-1.2-2.4-17.4 7.1 16.1c2.2 5 4.8 9.6 7.7 13.9.7 1 1.5 2.1 2.2 3.1.8 1 1.6 2 2.3 2.9.7 1 1.6 1.9 2.4 2.8.8.9 1.6 1.8 2.4 2.6l2.5 2.5c.8.8 1.7 1.5 2.5 2.3.4.4.8.7 1.2 1.1.4.4.9.7 1.3 1 .9.7 1.7 1.4 2.5 2 .8.6 1.7 1.2 2.5 1.8.8.6 1.6 1.2 2.5 1.7 1.7 1 3.2 2.1 4.8 3 1.6.9 3 1.8 4.5 2.4 1.5.7 2.8 1.5 4.1 2 1.3.6 2.5 1.1 3.7 1.6 1.2.4 2.2.8 3.2 1.2.5.2.9.4 1.3.5.4.1.8.3 1.2.4.7.3 1.4.5 1.9.7 1.2.7 1.7.9 1.7 1.1zM616.4 516.7c-.3-.2.2-1.7 1.3-4.3.3-.7.6-1.4 1-2.2.4-.8.8-1.6 1.3-2.5 1-1.8 2-3.8 3.5-6 .7-1.1 1.4-2.2 2.2-3.4.8-1.2 1.7-2.3 2.5-3.5 1.7-2.5 3.8-4.9 6-7.5 4.5-5.1 9.8-10.3 15.9-15.3 6.1-4.9 12.4-9 18.3-12.3 3-1.6 5.8-3.1 8.6-4.3 1.4-.6 2.7-1.2 4-1.7 1.3-.5 2.6-1 3.8-1.4 2.4-.9 4.6-1.5 6.6-2.1 1-.3 1.9-.5 2.7-.7.9-.2 1.6-.3 2.3-.5 2.8-.5 4.4-.7 4.5-.3.1.3-1.3 1.1-3.9 2.2-.7.3-1.4.6-2.2.9-.8.3-1.6.7-2.5 1.1-1.8.8-3.9 1.6-6.2 2.7-1.1.5-2.3 1.1-3.5 1.7-1.2.6-2.5 1.3-3.8 1.9-2.6 1.3-5.3 2.9-8.1 4.5-5.6 3.4-11.6 7.4-17.5 12.2-5.9 4.8-11.1 9.7-15.6 14.5-2.2 2.4-4.3 4.7-6.2 7-.9 1.1-1.9 2.2-2.7 3.3-.8 1.1-1.6 2.1-2.4 3.1-1.6 1.9-2.8 3.8-4 5.4-.6.8-1.1 1.6-1.6 2.2-.5.7-.9 1.4-1.3 1.9-1.7 2.3-2.7 3.5-3 3.4zM621.7 714.5c-.2.2-2.5-1-6-4.4-3.4-3.4-7.7-9-11.4-16.7-1.9-3.8-3.7-8.1-5.4-12.8-.8-2.3-1.7-4.8-2.5-7.3s-1.6-5.2-2.4-7.8c-3-10.8-5.4-22.9-6.5-35.9-1.2-12.9-.9-25.3.4-36.5s3.6-21 6-29.2c2.6-8.1 5.3-14.4 7.4-18.6 2.2-4.2 3.6-6.4 3.9-6.3.8.4-3.7 9.8-8 25.8-2 8.1-3.9 17.8-4.9 28.7-1 10.9-1.1 23 0 35.6 1.1 12.6 3.3 24.5 6 35.1.7 2.6 1.4 5.2 2.1 7.7.7 2.5 1.5 4.9 2.3 7.2 1.5 4.7 3.1 8.9 4.7 12.7 3.2 7.6 6.8 13.2 9.7 16.9 2.9 3.7 4.8 5.5 4.6 5.8zM670.7 590.3c-1.3.5-4.6-5.7-10.1-12.2-5.4-6.5-10.9-10.8-10.2-12.1.3-.6 2.2-.2 4.9 1.3 2.7 1.4 6 4.1 9 7.6 3 3.6 5 7.4 5.9 10.2 1.1 3 1.1 5 .5 5.2z"></path><path stroke="#000" stroke-miterlimit="10" stroke-width="1.5" d="M654.9 644.4c-.6.1-1.8-3.4-2.1-9.2-.2-2.9 0-6.4.3-10.2.4-3.8 1-7.9 1.8-12.2 3-17.1 6.5-30.8 7.8-30.5 1.3.2 0 14.3-3 31.4-.8 4.3-1.5 8.3-2.1 11.9-.6 3.6-1.1 6.9-1.4 9.7-.6 5.5-.6 9-1.3 9.1zM674.9 707.8c-.7.1-1.8-3.9-3.8-10.3-1-3.2-2.2-6.9-3.8-11-.8-2-1.7-4.1-2.6-6.3-.9-2.2-1.9-4.5-3-6.7-2.2-4.5-4.6-8.5-7.2-11.9-2.6-3.4-5.2-6.3-7.5-8.6-4.7-4.6-8-7.1-7.7-7.7.3-.5 4.4.9 9.9 5.1 2.8 2.1 5.8 4.9 8.8 8.4 3 3.5 5.8 7.8 8.1 12.6 1.2 2.4 2.1 4.7 3 7 .9 2.2 1.7 4.5 2.4 6.7 1.4 4.3 2.4 8.3 2.9 11.7 1.3 6.7 1.1 10.9.5 11zM700 708.5c-1.4.3-7.7-28.5-17.7-63.3-9.8-34.9-19.5-62.6-18.2-63.1.6-.2 3.8 6.4 8.2 17.5 4.4 11.1 9.8 26.7 14.7 44.2 5 17.5 8.6 33.6 10.7 45.4 2.1 11.8 2.9 19.1 2.3 19.3zM943 660c-.2-.1.1-.9.6-2.5.3-.8.7-1.7 1-2.9.4-1.1.9-2.5 1.4-4 2-6 4.5-14.7 6.2-25.8 1.8-11.1 2.8-24.5 2.8-39.4 0-14.9-.5-31.3-3.7-48.1-3.2-16.7-9.1-32.1-17.4-44.2-4.1-6.1-8.7-11.3-13.6-15.6-4.8-4.4-9.8-7.9-14.6-10.9-4.7-3-9.2-5.5-13.2-7.5-4-2.1-7.4-3.8-10.3-5.2-5.7-2.8-8.8-4.5-8.6-4.8.1-.3 3.5.8 9.4 3.1 3 1.2 6.6 2.6 10.7 4.5s8.8 4.2 13.7 7c5 2.9 10.2 6.4 15.4 10.8 5.2 4.4 10.2 9.9 14.6 16.1 8.9 12.6 15.2 28.6 18.5 45.8 3.3 17.3 3.6 34 3.4 49.1-.2 15.1-1.6 28.7-3.9 39.9-2.2 11.2-5.3 20.1-7.9 25.9-.7 1.4-1.3 2.7-1.8 3.8-.5 1.1-1.1 2-1.5 2.7-.5 1.6-1 2.3-1.2 2.2zM905.6 589.8c-.7.2-1.6-1.4-3.2-3.7-.4-.6-.8-1.2-1.3-1.8-.4-.7-1-1.3-1.5-2-1.1-1.4-2.5-2.8-4-4.2-1.5-1.4-3.1-2.5-4.6-3.5-.8-.5-1.5-1-2.2-1.3-.7-.4-1.3-.8-2-1.1-2.4-1.3-4.1-2.1-4-2.8.1-.6 2-1.1 5.1-.5.8.1 1.6.3 2.5.7.9.3 1.8.7 2.7 1.1 1.9.9 3.8 2.2 5.6 3.8 1.8 1.6 3.2 3.4 4.4 5.2.5.9 1 1.7 1.4 2.6.4.8.7 1.6.9 2.4 1 2.9.8 4.9.2 5.1z"></path><path stroke="#000" stroke-miterlimit="10" stroke-width="1.5" d="M892.2 660.6c-1.4-.5 4.3-18.4 5.1-41.3 1-22.8-3.3-41.2-1.9-41.5.6-.2 2.5 4.2 4.2 11.8.2.9.4 1.9.6 3 .2 1 .4 2.1.6 3.2.4 2.2.6 4.6.9 7.2.5 5.1.7 10.7.5 16.6-.2 5.9-.9 11.5-1.7 16.5-.5 2.5-.9 4.9-1.5 7.1-.3 1.1-.5 2.2-.8 3.2-.3 1-.6 2-.9 2.9-2.3 7.3-4.5 11.5-5.1 11.3z"></path><path stroke="#000" stroke-miterlimit="10" stroke-width="1.5" d="M847.2 712.1c-.6-.3 1-4.5 4.5-10.7 3.5-6.2 8.9-14.6 16.2-22.7 3.7-4.1 7.5-7.7 11.2-10.7 1.9-1.5 3.7-2.9 5.4-4 .9-.6 1.7-1.2 2.6-1.7.8-.5 1.7-1 2.4-1.4 6.3-3.6 10.6-4.8 10.9-4.2.3.7-3.4 3-9 7.1-.7.5-1.4 1.1-2.2 1.6-.7.6-1.5 1.2-2.3 1.9-1.6 1.2-3.2 2.7-4.9 4.2-3.4 3.1-6.9 6.6-10.5 10.6-7.1 7.9-12.8 15.7-17 21.3-4.1 5.5-6.7 9-7.3 8.7zM922.6 705.8c-.5-.5 1.6-3.4 4.7-8.2.4-.6.8-1.2 1.2-1.9l1.2-2.1c.9-1.4 1.7-3 2.6-4.7 1.7-3.3 3.5-7.1 5.2-11.1 3.3-8 5.7-15.6 7.5-21.1 1.8-5.5 3.1-8.9 3.7-8.8.6.1.6 3.8-.4 9.6s-2.9 13.8-6.3 22.1c-1.7 4.2-3.7 8-5.8 11.4-1.1 1.7-2 3.3-3.1 4.7-.5.7-1 1.4-1.5 2l-1.5 1.8c-4 4.6-7.1 6.7-7.5 6.3zM636.9 902.7c-.6.2-3.6-9.3-7.5-24.7-3.9-15.4-8.8-36.9-13.3-60.7-4.5-23.9-7.8-45.6-9.7-61.4-2-15.8-2.6-25.6-2-25.7.7-.1 2.6 9.6 5.4 25.2 2.8 15.6 6.6 37.2 11.1 61 4.5 23.8 8.8 45.3 11.8 60.9 3.1 15.6 4.9 25.3 4.2 25.4z"></path><path stroke="#000" stroke-miterlimit="10" stroke-width="1.5" d="M939.3 710.6c0 .3-4.5.9-12.8 1.8-4.1.5-9.2.7-15.1 1.1-5.9.4-12.6.6-20.1.8-14.9.4-32.6.4-52.3 0-19.7-.4-41.3-1.1-63.9-1.7-22.7-.6-44.2-.8-63.8-.4-19.6.4-37.2 1.4-52 2.7-14.8 1.3-26.7 2.9-34.9 3.9-8.2 1.1-12.8 1.7-12.9 1.3-.1-.3 4.4-1.5 12.6-3.2 8.2-1.6 20.1-3.7 34.9-5.5 14.8-1.8 32.5-3.1 52.2-3.8 19.7-.7 41.4-.6 64.1 0 22.7.6 44.3 1.4 63.9 2.1 19.6.6 37.3.9 52.1 1 7.4 0 14.1 0 20-.1s11-.1 15.1-.3c8.3-.1 12.9 0 12.9.3zM929.1 902c-.7-.1 0-10.4 1.3-27.2 1.3-16.7 3.3-39.8 5.1-65.3 1.8-25.5 3.2-48.6 4.3-65.3 1.1-16.7 1.9-27.1 2.6-27.1.7 0 1.1 10.4.9 27.2-.2 16.8-1 40-2.9 65.6-1.9 25.6-4.3 48.6-6.6 65.3-2.1 16.7-4 26.9-4.7 26.8zM914.3 905.2c0 .3-3.7.8-10.4 1.4-6.7.6-16.5 1.3-28.6 2-24.1 1.5-57.5 3.2-94.3 4.7-18.4.7-36 1.7-52.1 1.3-16.1-.4-30.5-2.4-42.4-3.9-12-1.5-21.7-2.8-28.4-3.8-6.7-1-10.4-1.7-10.3-2.1 0-.3 3.8-.3 10.5.2s16.5 1.2 28.5 2.3c12 1 26.3 2.7 42.1 2.8 15.8.1 33.4-1 51.8-1.7 36.8-1.6 70.2-2.7 94.4-3.3 12.1-.3 21.9-.4 28.6-.4s10.6.2 10.6.5zM765.8 820.8c.2-.1.6.5 1.4 1.5.8 1 2.1 2.4 4 3.7 1.9 1.4 4.5 2.7 7.8 3.4 3.2.7 7.1.8 11-.5 3.9-1.3 7.8-3.8 11-7.5 1.6-1.8 3-3.9 4.2-6.3 1.1-2.3 2-4.9 2.6-7.6 1.1-5.4 1.1-11.4 0-17.4-.5-3-1.4-6-2.5-8.8-1.2-2.8-2.7-5.6-4.8-7.8-2-2.3-4.5-3.9-7.2-4.9-2.7-.9-5.7-1.2-8.5-.8-5.7.6-10.8 3.7-14.7 7.5-3.9 3.9-6.6 8.5-8.4 13.2-1.7 4.6-2.4 9.3-2.3 13.5.1 4.2 1.1 7.9 2.5 11 1.3 3.1 3 5.6 4.5 7.4 3.1 3.7 5.5 5.1 5.2 5.5-.1.1-.8-.1-1.9-.7-1.2-.6-2.8-1.7-4.7-3.5-1.9-1.8-3.9-4.3-5.6-7.5-1.7-3.2-3.1-7.3-3.5-12-.4-4.6.2-9.8 1.9-15 .9-2.6 2.1-5.2 3.5-7.7 1.5-2.5 3.3-5 5.4-7.2 2.2-2.3 4.7-4.3 7.6-5.9 2.9-1.6 6.2-2.8 9.7-3.2 3.5-.4 7.2-.2 10.7 1 3.5 1.2 6.8 3.4 9.3 6.2 2.5 2.8 4.3 6 5.6 9.2 1.3 3.2 2.2 6.6 2.7 9.9 1.1 6.5 1.1 13.1-.4 19.2-.7 3-1.8 5.9-3.2 8.5-1.4 2.6-3.1 5-5 7-3.8 4.1-8.4 6.8-13 8.1-4.6 1.3-9.1.9-12.7-.2-3.6-1.1-6.4-2.8-8.3-4.6-1.9-1.8-3.1-3.5-3.6-4.7-.3-1.3-.5-2-.3-2zM610.7 777.1c.1.3-2.2 1.8-6.5 4.1-1.1.6-2.3 1.2-3.6 1.9-1.3.7-2.7 1.5-4.2 2.4-3 1.7-6.5 3.6-10.2 5.9-1.9 1.1-3.8 2.3-5.9 3.5-2 1.2-4.1 2.6-6.3 4-4.4 2.7-8.8 5.9-13.6 9.1-9.4 6.7-19.4 14.4-29.4 23.2-10 8.8-18.9 17.7-26.8 26.1-3.8 4.3-7.6 8.3-10.8 12.3-1.6 2-3.3 3.8-4.8 5.7-1.5 1.9-2.9 3.7-4.2 5.4-2.8 3.4-5.1 6.6-7.2 9.4-1 1.4-2 2.7-2.9 3.9-.9 1.2-1.7 2.3-2.4 3.3-2.9 4-4.6 6.1-4.9 5.9-.3-.2.9-2.6 3.3-6.9.6-1.1 1.3-2.3 2-3.6.8-1.3 1.7-2.6 2.6-4.1 1.9-2.9 4-6.3 6.6-9.9 1.3-1.8 2.6-3.7 4-5.6 1.4-1.9 3-3.9 4.6-5.9 3.1-4.1 6.8-8.3 10.6-12.7 7.8-8.7 16.8-17.9 26.9-26.8 10.2-8.9 20.4-16.6 30.1-23.2 4.9-3.2 9.5-6.3 14-8.9 2.2-1.3 4.4-2.6 6.5-3.8 2.1-1.1 4.2-2.2 6.1-3.3 3.9-2.1 7.5-3.8 10.7-5.3 1.6-.7 3.1-1.4 4.4-2 1.4-.6 2.7-1.1 3.8-1.5 4.8-2 7.4-2.9 7.5-2.6zM634.5 1035.1c-.4.6-10.6-5.3-26.9-15.2-16.3-9.9-38.5-23.9-63-39.5-12.2-7.8-23.8-15.4-34.4-22.3-5.3-3.5-10.2-6.8-14.9-9.8-4.6-3.1-9.1-5.9-12.9-8.9-3.8-3-7-6.2-9.3-9.4-2.3-3.2-3.7-6.4-4.4-9-.8-2.7-.8-4.8-.7-6.3.1-1.4.4-2.2.5-2.2.2 0 .3.8.5 2.1.2 1.4.6 3.3 1.6 5.7.9 2.4 2.5 5.2 4.8 8s5.4 5.6 9.2 8.3c3.8 2.7 8.3 5.3 13 8.3 4.7 3 9.8 6.1 15.2 9.5 10.7 6.7 22.3 14.1 34.6 21.9 24.4 15.7 46.4 30.1 62.2 40.7 15.7 10.6 25.3 17.5 24.9 18.1zM725.9 1031.1c-.2.3-3-1.1-8.1-3.8-.6-.3-1.3-.7-2-1.1-.7-.4-1.4-.9-2.1-1.3-1.5-.9-3.1-1.9-4.8-3-.9-.6-1.8-1.1-2.7-1.7-.9-.6-1.8-1.3-2.8-2-1.9-1.3-3.9-2.8-6-4.3-8.2-6.2-17.5-14.2-27.3-23.6-9.8-9.4-20-20.3-30.4-31.9-10.4-11.6-20.2-22.8-29.3-32.7-2.3-2.5-4.5-4.9-6.7-7.2s-4.3-4.6-6.4-6.7c-4.1-4.3-8.1-8.1-12-11.3-3.9-3.1-7.7-5.6-11.2-7.4-3.5-1.8-6.8-2.8-9.5-3.5-5.5-1.1-8.6-.7-8.7-1.1-.1-.2 3.1-1.3 9-.8 2.9.4 6.5 1.2 10.3 2.9 3.8 1.6 8 4.1 12.2 7.2 4.2 3.1 8.4 6.9 12.8 11.1l6.6 6.6c2.3 2.3 4.5 4.7 6.9 7.1 9.3 9.8 19.2 20.9 29.6 32.5 10.4 11.6 20.4 22.5 29.9 32s18.5 17.6 26.3 24.1c15.9 12.8 26.9 19.2 26.4 19.9zM592.7 1133.6c-.3 0-.6-1.7-.6-4.8 0-3.1.4-7.5 1.6-12.8 1.2-5.4 3.1-11.5 5.7-18.2 2.6-6.7 5.9-13.9 9.9-21.2 8-14.6 17.5-26.4 25-34.2 7.5-7.8 13-11.8 13.4-11.3.5.5-4.1 5.4-10.8 13.6-6.7 8.3-15.5 20.1-23.3 34.3-3.9 7.1-7.2 14-10 20.5-2.7 6.5-5 12.4-6.5 17.4-3.3 10.1-3.7 16.7-4.4 16.7zM717.4 1039.1c.4.6-7.2 5.2-18.9 13.1-11.7 7.9-27.5 19.4-43.6 33.8-8 7.2-15.4 14.3-21.9 21.1-1.6 1.7-3.2 3.3-4.7 5-1.5 1.6-3 3.2-4.4 4.7-2.8 3.1-5.6 5.9-8.3 8.4-2.7 2.4-5.3 4.5-7.8 6-2.5 1.6-4.8 2.5-6.8 3.2-3.9 1.2-6.3 1.1-6.3.8-.1-.4 2.1-.9 5.6-2.6 1.7-.9 3.8-2 5.9-3.7 2.2-1.6 4.5-3.7 6.9-6.2 2.4-2.5 4.9-5.4 7.6-8.6 1.3-1.6 2.8-3.2 4.2-4.9 1.5-1.7 3-3.4 4.6-5.2 6.4-7 13.7-14.4 21.9-21.6 16.3-14.6 32.7-25.8 45-33.1 12.6-7.2 20.7-10.7 21-10.2zM989.8 907.7c.1.7-2.9 1.5-7.8 2.1-4.9.6-11.7.8-19.3.1-7.5-.7-14.2-2.1-18.9-3.6-4.7-1.5-7.5-2.9-7.3-3.5.4-1.4 12.1 1 26.6 2.3 14.7 1.4 26.6 1.2 26.7 2.6zM1134.6 932.8c-.9.4-6.1-12.8-18.8-31.5-1.6-2.3-3.3-4.7-5.1-7.3-1.9-2.4-3.8-5-5.8-7.6-4.1-5.2-8.7-10.6-13.7-16.1-10.1-11-22-22.3-35.4-33.2-13.4-10.9-26.8-20.4-39.3-28.7-12.5-8.2-24-15.2-34-20.4-20-10.5-33.9-13.4-33.7-14.2.1-.3 3.6.1 9.8 1.6 6.2 1.6 15.1 4.5 25.4 9.4 10.4 4.9 22.2 11.6 35 19.7 12.7 8.1 26.4 17.6 39.9 28.7 13.5 11.1 25.6 22.6 35.6 34 5.1 5.6 9.5 11.3 13.6 16.7 2 2.7 3.9 5.4 5.7 7.9 1.7 2.6 3.3 5.2 4.9 7.6 1.6 2.4 2.9 4.8 4.2 7l1.8 3.3c.6 1.1 1.2 2.1 1.7 3.1 1 2 1.9 3.9 2.8 5.7.8 1.8 1.7 3.3 2.2 4.8 2.3 6 3.5 9.3 3.2 9.5z"></path><path stroke="#000" stroke-miterlimit="10" stroke-width="1.5" d="M1063.8 874.5c0 .2-.8.5-2.5 1-.8.2-1.8.5-3 .8-.6.1-1.3.3-1.9.5-.7.2-1.4.4-2.2.6-1.5.4-3.3.9-5.1 1.5-1.9.6-3.9 1.3-6 2-.5.2-1.1.4-1.7.6-.6.2-1.1.4-1.7.7-1.1.4-2.3.9-3.5 1.4-2.4.9-4.9 2.1-7.5 3.2-.7.3-1.3.6-2 .9-.7.3-1.3.7-2 1-1.3.7-2.7 1.3-4.1 2-1.4.7-2.8 1.5-4.2 2.2-1.4.8-2.9 1.5-4.4 2.4-2.9 1.7-6 3.4-9 5.4-1.5 1-3.1 1.9-4.6 2.9-1.5 1-3.1 2.1-4.7 3.1-12.6 8.5-25.8 18.9-39.3 30.3-13.5 11.4-26.3 22.4-38.4 31.9-6 4.8-11.9 9.1-17.5 13.1-2.8 2-5.5 3.8-8.2 5.6-1.3.9-2.7 1.7-3.9 2.5-.6.4-1.3.8-1.9 1.2-.6.4-1.3.8-1.9 1.1-5 3-9.6 5.5-13.8 7.6-2.1 1-4 2-5.8 2.8-1.8.8-3.5 1.5-5 2.1-.8.3-1.5.6-2.1.9-.7.2-1.3.5-1.9.7-1.2.4-2.2.8-3 1-1.6.5-2.5.7-2.6.6-.3-.8 13.1-5.9 32.4-18.6l1.8-1.2c.6-.4 1.2-.8 1.8-1.3 1.2-.9 2.5-1.7 3.8-2.6 2.6-1.8 5.2-3.7 8-5.7 5.4-4.1 11.2-8.5 17.1-13.3 11.8-9.6 24.5-20.7 38.1-32.1 13.6-11.4 27-21.8 39.9-30.3 1.6-1 3.2-2.1 4.8-3.1 1.6-1 3.2-1.9 4.8-2.9 3.1-1.9 6.3-3.6 9.3-5.2 1.5-.8 3-1.5 4.5-2.3 1.5-.7 2.9-1.5 4.4-2.2 1.5-.7 2.9-1.3 4.3-1.9l2.1-.9c.7-.3 1.4-.6 2.1-.8 2.7-1 5.3-2.2 7.8-2.9 1.3-.4 2.5-.8 3.6-1.2.6-.2 1.2-.4 1.7-.6.6-.2 1.2-.3 1.7-.5 2.2-.6 4.3-1.2 6.3-1.7 1.9-.4 3.7-.8 5.3-1.1.8-.2 1.6-.3 2.3-.4.7-.1 1.4-.2 2-.3 1.2-.2 2.3-.3 3.2-.3 1.4-.4 2.3-.4 2.3-.2zM932.9 1146.6c-.1.3-2.3-.4-6.1-2-1-.4-2-.9-3.2-1.4-1.1-.5-2.3-1.2-3.6-1.9-2.6-1.4-5.6-2.9-8.7-5-1.6-1-3.2-2.1-4.9-3.2-1.7-1.1-3.3-2.4-5.1-3.7-.9-.7-1.8-1.3-2.7-2-.4-.3-.9-.7-1.4-1-.4-.4-.9-.8-1.3-1.1-1.8-1.5-3.6-3.1-5.5-4.7-7.3-6.7-14.7-14.6-21.5-23.8-6.7-9.2-12.1-18.7-16.4-27.6-1-2.3-1.9-4.5-2.9-6.6-.2-.5-.5-1.1-.7-1.6-.2-.5-.4-1.1-.6-1.6-.4-1.1-.8-2.1-1.1-3.2-.7-2.1-1.5-4-2.1-6-.5-2-1.1-3.8-1.6-5.6-1.1-3.6-1.6-6.9-2.2-9.8-.3-1.5-.6-2.8-.7-4-.1-1.3-.3-2.4-.4-3.4-.4-4.1-.5-6.4-.1-6.5s1 2.2 2 6.1c.2 1 .5 2.1.8 3.3.3 1.2.7 2.5 1.1 3.9.8 2.8 1.6 6 2.9 9.4.6 1.7 1.2 3.5 1.8 5.4.7 1.9 1.5 3.8 2.3 5.8l1.2 3 .6 1.5c.2.5.5 1 .7 1.5 1 2.1 2 4.2 3 6.4 4.3 8.6 9.7 17.7 16.2 26.6 6.6 8.9 13.8 16.7 20.7 23.4 1.8 1.6 3.5 3.2 5.2 4.7.4.4.8.8 1.3 1.1.4.4.9.7 1.3 1.1.9.7 1.7 1.4 2.5 2.1 1.7 1.3 3.2 2.7 4.8 3.9 1.6 1.2 3.2 2.3 4.6 3.4 2.9 2.2 5.7 3.9 8.2 5.5 1.2.8 2.3 1.6 3.4 2.2 1.1.6 2.1 1.2 2.9 1.7 3.5 2.1 5.4 3.4 5.3 3.7zM937.1 1137.9c-.7 0-1.2-5.4-2.5-13.8-.2-1.1-.3-2.2-.5-3.3-.2-1.2-.4-2.3-.7-3.6-.4-2.5-1-5.1-1.6-7.9-1.3-5.5-3-11.5-5.1-17.6-2.2-6.1-4.6-11.9-7-17-1.2-2.5-2.4-5-3.6-7.2-.6-1.1-1.1-2.2-1.7-3.2-.6-1-1.1-2-1.7-2.9-4.3-7.4-7.2-11.9-6.7-12.4.5-.4 4.4 3.4 9.6 10.5.6.9 1.3 1.8 2 2.8.7 1 1.3 2.1 2 3.2 1.4 2.2 2.7 4.6 4.1 7.2 2.7 5.2 5.3 11 7.5 17.4 2.2 6.4 3.8 12.6 4.9 18.3.5 2.9 1 5.6 1.2 8.2.1 1.3.3 2.5.4 3.7.1 1.2.1 2.3.2 3.4.6 8.8-.2 14.2-.8 14.2zM1133.3 928.4c.2.2-2.3 3.1-7.3 8.1-5.1 4.8-12.6 11.7-22.7 19.1-10.1 7.5-22.6 15.6-37.1 23.6-14.5 8-31 15.8-48.5 23.2-17.6 7.4-34.5 13.9-50 19.6-15.5 5.7-29.5 10.6-41.4 14.5-11.8 3.9-21.5 6.9-28.2 8.8-6.7 1.9-10.5 2.8-10.6 2.5-.1-.3 3.5-1.8 10-4.3s16-5.9 27.7-10.2c11.7-4.3 25.6-9.5 40.9-15.4 15.3-5.9 32.2-12.5 49.7-19.9 17.5-7.4 33.8-15 48.3-22.7 14.5-7.7 27-15.4 37.3-22.5 10.2-7 18-13.4 23.4-17.7 5.2-4.5 8.3-6.9 8.5-6.7zM631 891.3c.1 1.4-8.5 3.3-18.9 6.4-10.4 3-18.7 6.2-19.3 4.9-.3-.6 1.4-2.2 4.6-4 3.2-1.9 7.9-4 13.3-5.6 5.4-1.6 10.5-2.4 14.2-2.6 3.7-.1 6 .2 6.1.9zM785.2 529.4c-.2.6-3.1.5-7.5-1.2-2.2-.8-4.7-2.1-7.3-3.9-2.6-1.7-5.2-4-7.7-6.7-3.5-3.8-6-8-7.6-11.7-1.6-3.7-2.2-7-2.4-9.1l1.2.6s.1.1 0 .1c0 0-.1 0-.2.1s-.2.2-.2.4c-.1.1-.1.3-.1.4v.3c-.1.1-.1.1-.3.1-.2 0-.4-.2-.6-.4-.2-.3-.3-.7-.3-1.2 0-.3.1-.5.3-.8.2-.3.5-.6.9-.7l.7-.2.5 1c1 1.8 2.1 4.6 4 7.8s4.4 6.8 7.5 10.3c4.4 4.9 9.2 8.4 12.9 10.7 3.9 2.1 6.4 3.4 6.2 4.1zM795.9 530c-1.1-.9 3.6-8 8-17.3 4.5-9.3 7-17.4 8.4-17.1.6.1.8 2.4.3 5.9-.5 3.5-1.9 8.3-4.3 13.3-2.4 4.9-5.2 9-7.6 11.7-2.4 2.6-4.3 3.9-4.8 3.5zM875.2 415.4c-.6-.2 2.3-7.2 4.5-19.3 1.1-6.1 2-13.5 1.9-21.9 0-8.4-1.1-17.7-3.6-27.4l-2.9-11.4 7.1 9.5c5.8 7.7 10.2 17.4 11.9 27.9l.2 1.3-4.9.1c.6-6.6.5-13.1-.2-19.4-.2-1.6-.4-3.1-.6-4.6l-.9-4.5c-.3-1.5-.7-2.9-1.1-4.3-.4-1.4-.7-2.8-1.3-4.2-.5-1.4-.9-2.7-1.4-4-.5-1.3-1.1-2.6-1.6-3.8-.3-.6-.5-1.3-.8-1.9l-.9-1.8c-.6-1.2-1.2-2.4-1.7-3.5-.6-1.1-1.3-2.2-1.9-3.3-.6-1.1-1.2-2.2-1.9-3.1-.7-1-1.3-2-2-2.9-.3-.5-.6-1-1-1.4-.3-.4-.7-.9-1-1.3-1.3-1.7-2.6-3.4-3.9-4.9-1.3-1.5-2.5-3-3.7-4.2-1.2-1.2-2.3-2.4-3.4-3.5-1.1-1-2.1-1.9-3-2.8-.5-.4-.9-.8-1.3-1.2-.4-.3-.8-.7-1.2-1-.7-.6-1.4-1.1-1.8-1.6-1-.9-1.5-1.4-1.4-1.6.1-.1.7.1 1.9.7.6.3 1.3.7 2.1 1.2.4.3.9.5 1.3.8.5.3.9.7 1.5 1 1 .8 2.2 1.6 3.4 2.5 1.2 1 2.4 2.1 3.8 3.3 1.4 1.1 2.7 2.6 4.1 4 1.5 1.4 2.8 3.1 4.3 4.9.4.4.7.9 1.1 1.3.4.5.7.9 1.1 1.4.7 1 1.4 1.9 2.2 3 .8 1 1.4 2.1 2.1 3.2.7 1.1 1.4 2.2 2.1 3.4.6 1.2 1.3 2.4 1.9 3.6.3.6.7 1.2 1 1.9.3.6.6 1.3.9 1.9.6 1.3 1.2 2.6 1.8 4 .5 1.4 1 2.8 1.6 4.2.6 1.4 1 2.9 1.4 4.4.4 1.5.9 3 1.2 4.5.3 1.6.7 3.1 1.1 4.7.2 1.6.5 3.2.7 4.9.8 6.6 1 13.5.3 20.5l-1.8 18.6-3-18.5-.2-1.2c-1.6-9.7-5.6-18.7-10.9-26l4.1-2c2.5 10.2 3.3 19.9 3 28.6-.2 8.7-1.5 16.3-3.1 22.5-1.6 6.2-3.3 10.9-4.7 14.1-1.3 3.1-2.3 4.7-2.5 4.6z"></path><path stroke="#000" stroke-miterlimit="10" stroke-width="1.5" d="M982.6 1007.3c-.4.5-4.3-1.5-9.7-6.1l-2.1-1.8c-.7-.7-1.4-1.4-2.2-2.1-1.5-1.5-3-3.2-4.5-4.9-3-3.6-6-7.8-8.7-12.6-2.7-4.7-4.8-9.5-6.4-13.9-.7-2.2-1.5-4.3-1.9-6.4-.3-1-.5-2-.7-2.9-.2-1-.4-1.9-.5-2.7-1.2-7-1-11.4-.4-11.5.7-.1 1.7 4.1 3.7 10.6.3.8.5 1.7.8 2.6.3.9.6 1.8 1 2.7.6 1.9 1.5 3.9 2.3 6 1.8 4.1 3.9 8.6 6.4 13.1 2.6 4.5 5.3 8.6 8 12.2 1.4 1.8 2.7 3.5 4 5 .6.8 1.2 1.5 1.9 2.2.6.7 1.2 1.4 1.8 2 4.6 5 7.7 7.9 7.2 8.5zM987.2 995.6c-.5.4-3.4-1.6-7.2-5.8-1.9-2.1-4.1-4.7-6.3-7.8-2.1-3.1-4.3-6.6-6.3-10.5-2-3.9-3.5-7.7-4.8-11.3-1.2-3.6-2.1-6.9-2.6-9.6-1.1-5.6-1-9.1-.4-9.3 1.4-.3 4.5 13.1 12.1 28 7.5 14.9 16.5 25.3 15.5 26.3zM624.7 942.2c.5.3-1 4.6-5.1 10.7-.5.8-1.1 1.5-1.6 2.4-.6.8-1.2 1.6-1.9 2.5-1.3 1.7-2.9 3.4-4.5 5.2-3.4 3.5-7.3 7.1-11.8 10.5-4.5 3.3-9.2 6-13.5 8.1-2.2 1-4.3 2-6.3 2.7-1 .4-2 .8-2.9 1.1-1 .3-1.9.6-2.7.8-7 2-11.6 2.2-11.7 1.6-.2-.7 4.1-2.1 10.6-4.9.8-.4 1.7-.7 2.5-1.1.9-.4 1.8-.9 2.7-1.3 1.9-.9 3.8-1.9 5.9-3 4-2.3 8.4-4.9 12.7-8.1 4.3-3.2 8.1-6.5 11.5-9.7 1.6-1.6 3.2-3.2 4.6-4.7.7-.8 1.4-1.5 2-2.2l1.8-2.1c4.4-5.2 7-8.8 7.7-8.5z"></path><path stroke="#000" stroke-miterlimit="10" d="M598.1 937.4c.4.3-1.1 3.1-4 7.3-2.8 4.3-7 10-12.5 15.7-2.8 2.8-5.6 5.3-8.4 7.4-1.4 1-2.7 2-4.1 2.7-.7.4-1.3.8-1.9 1.1l-1.8.9c-4.7 2.3-7.9 2.9-8 2.5-.2-.5 2.7-1.8 6.9-4.5.5-.3 1.1-.7 1.6-1.1.6-.4 1.1-.8 1.7-1.2 1.2-.8 2.4-1.8 3.7-2.8 2.5-2.1 5.2-4.6 7.9-7.3 5.3-5.5 9.7-10.9 13-14.8 3.4-3.8 5.6-6.2 5.9-5.9z"></path><path stroke="#000" stroke-miterlimit="10" stroke-width="1.5" d="M644.9 630.2c-.4.6-3.5-.8-8.5-2.6-2.5-.9-5.6-1.8-8.9-2.6-3.4-.8-7.2-1.4-11.2-1.7-6-.5-11.6-.2-16.2.5-4.6.6-8.2 1.6-10.6 2l-.6-1.8c1.6-.1 2.6 0 2.7.3.1.3-.7.9-2.2 1.6l-.6-1.8c2.1-1.2 5.7-3 10.5-4.2 4.8-1.2 10.9-1.9 17.3-1.4 4.3.3 8.4 1.1 12 2.2 3.6 1.2 6.7 2.4 9.2 3.8 4.9 2.6 7.4 5.1 7.1 5.7zM634.9 606.4c-.3 1.4-8.8.6-19.1 1-10.3.3-18.7 1.5-19.1.2-.2-.6 1.8-1.8 5.2-2.9 3.4-1.1 8.3-2 13.8-2.2 5.5-.2 10.4.5 13.9 1.4 3.5.8 5.5 1.8 5.3 2.5zM948.8 630.4c-.4.6-3.1-.4-7.5-1.9-1.1-.4-2.3-.7-3.6-1.1-1.3-.4-2.7-.7-4.1-1.1-2.9-.7-6.2-1.3-9.6-1.7-3.4-.4-6.7-.5-9.7-.5-1.5 0-2.9 0-4.3.2-1.3.1-2.6.2-3.7.3-4.6.4-7.5.9-7.7.2-.2-.6 2.4-2.2 7.1-3.6 1.2-.3 2.5-.7 3.9-.9 1.4-.3 2.9-.5 4.5-.6 3.2-.3 6.8-.3 10.5.1s7.2 1.2 10.3 2.2c1.5.5 3 1 4.3 1.6 1.3.5 2.5 1.2 3.6 1.7 4.2 2.4 6.3 4.5 6 5.1zM934.8 606c-.3 1.3-7.2 1.1-15.7.6-8.5-.6-15.4-1.3-15.5-2.6-.1-1.3 7-2.8 15.8-2.2 8.9.5 15.7 2.9 15.4 4.2zM784.6 268c-.2.7-4.3.2-10.8.1h-2.6c-.9 0-1.8.1-2.8.1-1.9 0-3.9.3-6.1.5-4.3.5-8.9 1.4-13.7 2.7-4.7 1.4-9.1 3.1-13 4.9-1.9 1-3.8 1.8-5.4 2.8-.8.5-1.7.9-2.4 1.4-.8.5-1.5.9-2.2 1.4-5.5 3.5-8.7 6.1-9.3 5.6-.2-.2.3-1.2 1.5-2.7.3-.4.6-.8 1-1.2.4-.4.8-.9 1.3-1.4 1-.9 2.1-2.1 3.4-3.1.7-.5 1.4-1.1 2.1-1.7.7-.6 1.6-1.1 2.4-1.7 1.6-1.2 3.5-2.2 5.5-3.4 4-2.1 8.7-4.1 13.7-5.6 5.1-1.4 10.1-2.2 14.6-2.5 2.3-.1 4.4-.2 6.5 0 1 .1 2 .1 2.9.2l2.7.3c1.7.2 3.2.6 4.5.9.7.2 1.3.3 1.8.5.6.2 1.1.4 1.5.5 2 .6 3 1.1 2.9 1.4zM792.3 272.1c-1.2.6-4.8-4-10.1-8.7-5.2-4.7-10.2-7.8-9.7-9.1.3-.6 1.9-.6 4.4.3 2.4.8 5.6 2.6 8.6 5.2 2.9 2.7 5 5.6 6.1 8 1.1 2.3 1.3 4 .7 4.3zM802.8 265.6c-.6.3-1.9-.9-3.9-2.7-.5-.4-1-.9-1.7-1.4-.6-.5-1.3-1-2-1.5-1.4-1-3-2-4.8-3-1.8-.9-3.5-1.6-5.2-2.2-.8-.3-1.6-.5-2.4-.7-.8-.2-1.5-.4-2.1-.5-2.6-.6-4.4-.9-4.5-1.6-.1-.6 1.6-1.6 4.7-1.8.8-.1 1.6-.1 2.5 0 .9 0 1.9.2 2.9.4 2 .4 4.2 1.1 6.3 2.2 2.1 1.1 3.9 2.5 5.4 3.9.7.7 1.4 1.4 2 2.1.6.7 1 1.4 1.4 2.1 1.7 2.5 1.9 4.4 1.4 4.7zM819.5 273.1c-.4-.2-.4-2.1 1.2-5 .8-1.4 1.9-3.1 3.5-4.7.4-.4.8-.8 1.3-1.2.1-.1.3-.3.5-.4.3-.2.5-.4.8-.6.2-.1.3-.2.5-.2.1 0 .2-.1.2-.1h.1l-.2-.1c-.5-.2-.9-.3-1.4-.3h-1.8c-1.7.1-3.4.3-5 .4-3.2.3-5.8.7-7.8 1.6-2 .9-3.4 2-4.2 3-.9.9-1.3 1.6-1.6 1.5-.3-.1-.5-1 0-2.5s1.8-3.5 4.2-5.1c2.4-1.6 5.6-2.5 8.9-3 1.7-.3 3.4-.5 5.2-.7.4 0 1.2-.1 1.9-.1.8 0 1.6-.1 2.4 0 1.6 0 3 .3 4.3.6 1.3.3 2.3.7 3.2 1.2.9.5 1.9.9 2.9 1.5l.8.4c.2.1.1.1.1.1v.1c0 .1-.1.1 0 .3.1.2 0 .2.3.5l.3.4.2.2.3.3c-1.2.3-2.3.6-3.4.8-.9.2-1.9.5-2.8.7-.4.1-.9.2-1.3.3l-.3.1c-.1 0-.1.1-.2.1l-.4.2c-.5.2-1.1.5-1.6.7-.5.2-.9.5-1.3.7l-.6.4-.3.2-.2.2c-.4.3-.8.5-1.2.8-1.5 1.1-2.8 2.3-3.7 3.4-2.3 2-3.2 3.5-3.8 3.3z"></path><path stroke="#000" stroke-miterlimit="10" stroke-width="1.5" d="M865.5 294c-.5.5-3-1.3-7-4.1s-9.5-6.5-16-9.9c-3.3-1.7-6.4-3.2-9.4-4.4-1.5-.6-2.9-1.2-4.2-1.7-1.2-.5-2.4-.8-3.5-1-2.2-.4-3.8-.1-4.8.4s-1.5 1.1-1.9 1c-.3-.1-.4-1.1.6-2.5.6-.6 1.4-1.3 2.5-1.7 1.1-.4 2.4-.6 3.8-.7 1.4 0 2.9.1 4.5.5 1.5.4 3 .8 4.6 1.3 3.2 1.1 6.6 2.5 10.1 4.3 6.9 3.6 12.5 8 16 11.6 3.5 3.8 5.2 6.5 4.7 6.9z"></path><path stroke="#000" stroke-miterlimit="10" d="M681.9 997.9c.3.4-2.7 2.9-6.6 7.6-1.9 2.4-4.1 5.4-6 8.9-1 1.8-1.9 3.7-2.7 5.7-.4 1-.8 2.1-1.1 3.2-.2.6-.4 1.1-.6 1.7l-.3.9c-.1.3-.2.5-.4 1.1-.3.8-.7 1.6-1.1 2.3-.4.7-.8 1.3-1.3 1.8-.9 1-1.7 1.7-2.8 2.6-.1-.1-.2-.3-.2-.4l-.2-.5c-.1-.3-.2-.6-.4-.8-.2-.5-.4-1-.5-1.6-.1-.6-.2-1.4-.2-2.2v-2.3c-.2-.7-.4-1.1-.7-1.2-.3-.2-.8-.2-1.4.1-.6.2-1.3.7-2 1.1-.6.4-1.3.9-1.8 1.3-1.1.9-2.1 1.9-2.9 2.8-1.6 1.9-2.7 3.6-3.4 4.8-.7 1.2-1.1 1.9-1.3 1.9-.2-.1-.2-.9.2-2.3s1.2-3.5 2.7-5.7c.8-1.1 1.7-2.3 2.9-3.4.6-.6 1.2-1.1 1.9-1.6s1.4-1.1 2.4-1.5c.5-.2 1-.4 1.7-.5.6-.1 1.4 0 2.1.3.7.3 1.3.8 1.7 1.4.4.6.6 1.2.8 1.8l.1.4V1026.2c0 .2 0 .5.2.6.4-.3.6-.8.8-1.2l.2-.6.3-.8c.2-.6.4-1.1.6-1.7.4-1.1.8-2.3 1.3-3.3.9-2.2 1.9-4.2 3-6 2.2-3.7 4.6-6.7 6.9-9 2.3-2.3 4.3-3.9 5.8-4.9 1.2-1.2 2.1-1.6 2.3-1.4zM643.5 1047c.3 0 .6 1.2 1 3.5.2 1.1.4 2.5.6 4.1.1.8.2 1.6.3 2.5.1.4.1.9.2 1.4.1.6.1 1.5-.3 2.2-.4.7-1.1 1.2-1.9 1.5-.9.3-1.3.3-1.9.3-1.1.1-2.3.2-3.5.2-1.2 0-2.4 0-3.7-.1h-.9c.1.3.3.5.4.9.8 1.6 1.7 3.1 2.5 4.6l.4.6.6 1c.4.6.8 1.3 1.2 1.9.8 1.2 1.6 2.5 2.4 3.7-4.1-.6-7.9-1.2-11.4-1.8-2.4-.4-4.5-.7-6.3-1-3.5-.6-5.6-1.1-5.6-1.4 0-.3 2.2-.5 5.8-.5 1.8 0 4 .1 6.4.3 1.1.1 2.4.2 3.6.3.4 0 .8.1 1.2 0-.1-.2-.3-.4-.4-.6l-.2-.3-.1-.1-.3-.5c-.9-1.5-1.8-3.1-2.7-4.8-1-2-2-4.1-2.9-6.1 2.2.2 4.5.5 6.5.7 1.2.1 2.3.2 3.4.2h3.2c.5 0 1.1-.1 1.2-.1.2 0 .4-.1.5-.3.1-.2.1-.3.1-.6v-8c.2-2.4.4-3.7.6-3.7zM891.4 1048.6c-.2.3-1.5-.6-4-1.5-1.2-.4-2.8-.8-4.5-1-.9-.1-1.8-.1-2.8 0-.2 0-.5 0-.7.1l-.5.1c-.2 0-.5.1-.7.1-.9.2-1.9.4-2.9.6 0-.9 0-2.1.1-3.1v-6.7c-.1-2.8-.2-5.8-.5-8.9-.4-4.4-1.2-8.6-2.3-12.2-1.1-3.7-2.4-6.8-3.7-9.4-.7-1.3-1.3-2.4-1.9-3.4-.3-.5-.6-1-.9-1.4-.3-.4-.5-.8-.7-1.1-.2-.2-.4-.4-.6-.5-.2 0-.4.1-.5.3-.2.3.1.4.1.4.1-.2-.4-.4-.2-1 .1-.2.3-.5.7-.6.4-.1.9.1 1.3.5.4.3.7.7 1.1 1 .4.4.7.8 1.1 1.3.8.9 1.6 2 2.4 3.3 1.7 2.6 3.3 5.8 4.6 9.7 1.3 3.8 2.2 8.2 2.7 12.8.3 3.2.4 6.3.4 9.2 0 1.5-.1 2.9-.1 4.2v1.9c0 .1-.1.3 0 .3h2c1.1 0 2.2.1 3.2.3 2 .4 3.6 1.1 4.9 1.8 2.1 1.3 3.1 2.7 2.9 2.9zM910.2 1051.3c-.7.6-4.1-2.1-9.1-3.3-5-1.3-9.3-.6-9.6-1.5-.1-.4.9-1.2 2.8-1.7.9-.3 2.1-.4 3.4-.5 1.3 0 2.7.1 4.2.5s2.8.9 3.9 1.6c1.1.6 2.1 1.3 2.8 2 1.4 1.5 1.9 2.6 1.6 2.9zM916.1 1102.2c0 .2-1.1.5-3.3.7-1.1.1-2.5.1-4-.3-1.6-.4-3.4-1.2-4.8-3-.7-.9-1.3-2-1.5-3.3-.2-1.3.1-2.7.7-3.8 1.1-2.3 3-4 3.6-5.9.3-1 .4-2 .1-2.5-.3-.6-1-.9-2.1-1.1-.5-.1-1.2-.1-1.8 0-.7 0-1.4.1-2.1.1-1.7.1-3.5.2-5.2.2-1.5.1-3 .1-4.4.2 1.3-2.4 2.6-4.7 3.9-7l2.4-4.2c.8-1.4 1.5-2.7 2.3-4 .4-.6.7-1.3 1.1-1.9.2-.3.4-.6.5-.9.1-.3.1-.3.2-.4 0-.1 0-.3-.1-.4 0-.1-.2-.3-.4-.4-.4-.3-.9-.6-1.5-.8-1.2-.4-2.4-.6-3.5-.7-2.3-.1-4.4.2-6.1.5-3.4.7-5.5 1.2-5.6.9-.1-.3 1.7-1.3 5.1-2.5 1.7-.6 3.9-1.2 6.6-1.2 1.3 0 2.8.1 4.3.5.8.2 1.6.5 2.4 1.1.4.3.8.7 1.1 1.2.3.5.5 1.1.5 1.8 0 .6-.2 1.2-.4 1.6-.2.4-.4.7-.5 1-.3.6-.7 1.3-1 1.9-.7 1.3-1.4 2.7-2.2 4.1-1.1 2-2.2 4-3.3 6.2h.6c1.1 0 2.2-.1 3.3-.1.7 0 1.4-.1 2.1-.1.7 0 1.5 0 2.3.1.8.1 1.7.3 2.5.8s1.6 1.2 2 2.1c.4.9.5 1.8.5 2.7 0 .8-.2 1.6-.5 2.3-.5 1.4-1.4 2.6-2.1 3.5-.7.9-1.4 1.8-1.8 2.6-.4.8-.7 1.6-.6 2.4 0 .8.4 1.5.8 2.2.9 1.3 2.2 2.2 3.5 2.6 1.3.5 2.5.6 3.6.8 1.6.1 2.8.2 2.8.4z"></path></g><g><path fill="#edcdbc" d="M577.7 312.3H399.1c-6.6 0-12-5.4-12-12v-64.5c0-6.6 5.4-12 12-12h178.6c6.6 0 12 5.4 12 12v64.5c0 6.6-5.4 12-12 12z"></path><path fill="#ff4f03" d="M454.6 522.2c-1.3-1.1-27.4-23.8-21.4-52.7 3.4-16.5 15.5-26.1 21.4-30.7 22.4-17.8 49-15.5 57.6-14.3 8.6 1.2 36.4 5.1 49.9 28.5 1.7 2.9 10.1 17.4 6 34.6-5.6 23.9-30.9 34.2-40.1 37.9-33.1 13.5-64.8.5-73.4-3.3zM329.5 638c-1.7 1.5-6.6 6.2-6.6 12.6 0 5.5 3.6 9.1 9.3 14.8 1.6 1.6 8.4 8.3 19.8 12.6 2 .8 3.8 1.3 4.9 1.6 2.3-6 5.2-14.3 8.2-24.2 7.5-24.8 6.6-30.4 3.8-34-2.9-3.9-8.1-6.1-12.6-5.5-9 1.2-12.7 13.2-13.2 14.8-2.5 8.2 0 15.4 1.1 18.1-.3-1.1-1.4-5.2-5.5-8.2-3.9-2.7-8.1-2.6-9.2-2.6zM365.7 576c-1.3 1.5-2.8 3.9-3.3 7.1-.9 5.7 1.7 11.7 6 14.3 1 .6 2.3 1.3 3.8 1.1 2.6-.4 4.8-3.4 5.5-7.7.7-.6 10.3-8.6 8.2-17.6-.1-.3-1.5-5.9-4.9-6.6-3.7-.8-8.4 4.4-9.9 9.3-1.2 3.8-.3 6.9-1.1 7.1-.5.3-1.6-.8-4.3-7z"></path><path stroke="#000" stroke-miterlimit="10" d="M356.7 677.7c-.4-.2 1.6-6.1 4.6-15.7 1.5-4.8 3.1-10.6 4.8-17 .4-1.6.8-3.3 1.2-5 .4-1.7.8-3.4 1.1-5.1.6-3.4.8-7.1-.2-10.4-1-3.2-3.5-5.6-6.7-6.2-1.5-.3-3.1-.3-4.7 0-1.5.3-2.9.9-4.2 1.7-2.6 1.6-4.7 3.8-6.3 6.2-1.6 2.3-2.7 4.7-3.4 7-.7 2.3-1 4.5-1 6.4 0 1.9.3 3.5.7 4.9.8 2.6 1.8 3.9 1.6 4-.1.1-1.5-.9-2.7-3.6-.6-1.3-1.1-3.1-1.3-5.2-.2-2.1 0-4.5.6-7.1.6-2.6 1.7-5.3 3.4-7.9 1.7-2.6 3.9-5.2 7-7.2 3-2 7.1-3.1 11.2-2.2 2 .4 4.1 1.3 5.6 2.8 1.6 1.5 2.8 3.4 3.5 5.5.7 2.1.8 4.2.8 6.1 0 2-.3 3.9-.6 5.8-.3 1.8-.8 3.6-1.2 5.3-.4 1.7-.9 3.4-1.4 5-1.8 6.5-3.8 12.2-5.5 17-3.7 9.5-6.5 15.1-6.9 14.9z"></path><path stroke="#000" stroke-miterlimit="10" d="M354.8 680.6c-.3.4-4.6-2.5-11.9-6.7-3.6-2.1-8-4.5-12.9-6.9-2.5-1.2-5.1-2.3-7.9-3.7-1.4-.7-2.8-1.6-4.2-2.7-1.3-1.1-2.5-2.6-3.3-4.2-1.6-3.4-1.6-7.1-.7-10.3.4-1.6 1.2-3.1 2-4.5.9-1.3 2-2.5 3.2-3.5.3-.3.6-.5 1-.7.3-.2.6-.4 1-.6.7-.3 1.4-.7 2.1-.9.4-.1.7-.2 1-.3.4-.1.7-.1 1.1-.2.7-.2 1.4-.1 2.1-.2 2.7-.1 5.2.7 7.2 1.6 2 1 3.7 2.2 4.9 3.5 1.2 1.3 2.1 2.5 2.6 3.6 1.1 2.2 1.2 3.6 1 3.6-.3.1-.7-1.1-2.1-3-.7-.9-1.6-1.9-2.8-3-1.2-1-2.8-2-4.6-2.7-1.8-.7-3.9-1.2-6.2-1-2.2.2-4.5.9-6.4 2.5-.9.8-1.7 1.8-2.5 2.8-.6 1.1-1.2 2.3-1.6 3.6-.7 2.6-.6 5.5.5 8 .6 1.2 1.4 2.3 2.5 3.2 1.1.9 2.3 1.6 3.6 2.3 2.6 1.3 5.3 2.6 7.8 3.9 5 2.6 9.3 5.2 12.8 7.6 7.1 5 10.9 8.6 10.7 8.9zM372.4 587.1c-.5.1-1.4-3.1-4.1-7.5-.7-1.1-1.5-2.3-2.4-3.5-.9-1.2-2-2.5-3.1-2.9-.5-.2-.9-.1-1.3.1-.4.3-.9.8-1.2 1.5-.2.3-.3.7-.5 1.1-.1.4-.3.9-.3 1.3-.2.9-.3 1.8-.4 2.7-.3 3.7.7 7.4 2.4 10.2 1.7 2.8 3.9 4.8 6.1 6.2 2.2 1.3 4.1 2 5.5 2.5 1.4.4 2.2.6 2.2.9 0 .2-.9.4-2.4.4-1.6-.1-3.9-.4-6.4-1.7-2.6-1.2-5.4-3.4-7.5-6.6-2.1-3.2-3.4-7.5-3.1-12 .1-1.1.2-2.2.5-3.3.1-.5.3-1 .4-1.6.2-.5.4-1.1.7-1.6.5-1 1.3-2 2.5-2.7.6-.3 1.3-.6 2-.6s1.4.1 2 .4c1.2.5 1.9 1.3 2.5 2 .6.7 1.1 1.4 1.6 2.1.9 1.4 1.7 2.7 2.3 4 1.2 2.5 1.8 4.7 2.1 6.2.2 1.5.1 2.3-.1 2.4z"></path><path stroke="#000" stroke-miterlimit="10" d="M374.4 595.6c-.4-.3 1.1-3.2 3.6-7.8 1.2-2.3 2.7-5 4.3-8.1.8-1.5 1.7-3.2 2.3-4.7.6-1.6 1-3.3.4-4.4-.5-1.1-1.8-1.8-3.3-1.9-1.4-.1-2.8.6-4 1.6-1.2.9-2.1 2.2-3 3.3-.8 1.2-1.5 2.4-2 3.5-1 2.3-1.5 4.3-1.8 5.7-.3 1.4-.5 2.2-.7 2.2-.2 0-.5-.8-.5-2.3-.1-1.5.1-3.8 1-6.4.4-1.3 1-2.7 1.9-4.1.8-1.4 1.8-2.9 3.3-4.2.7-.7 1.6-1.3 2.6-1.7 1-.5 2.2-.8 3.3-.7 1.2 0 2.4.2 3.5.9 1.1.6 2.2 1.6 2.7 2.9.6 1.3.6 2.6.5 3.8-.2 1.2-.5 2.2-.9 3.2-.8 1.9-1.8 3.4-2.6 5-1.8 3-3.5 5.7-5 7.9-3 4.1-5.2 6.6-5.6 6.3zM487.4 529.9c0-.1 1.4-.1 4.1-.1 2.7 0 6.6.1 11.6-.2 2.5-.2 5.3-.5 8.3-.9 3-.5 6.2-1.2 9.6-2.2 6.8-2 14.3-5.3 21.4-10.6 3.6-2.6 7.1-5.7 10.5-9.2 1.7-1.8 3.3-3.6 4.8-5.6 1.6-2 3.2-4.1 4.6-6.2 2.9-4.3 5.2-9.1 5.8-14.6.7-5.4-.1-11-2-16.5-1-2.7-2.3-5.4-3.7-8-1.4-2.7-3-5.2-4.9-7.6-3.7-4.8-8.4-9-13.7-12.5-5.2-3.6-11.1-6.4-17.4-8.2-6.3-1.9-12.9-2.9-19.7-3.2-6.7-.4-13.5.1-19.9 1.4-6.5 1.3-12.7 3.3-18.5 5.9-2.9 1.3-5.8 2.7-8.5 4.2-2.8 1.5-5.5 3.1-8.2 4.7-5.3 3.2-10.1 6.8-14 11.1-1.9 2.1-3.6 4.4-5.1 6.9-1.5 2.4-2.8 4.9-3.8 7.5-2.1 5.1-3.2 10.4-3.2 15.5s1 10.1 2.8 14.5c1.8 4.4 4.4 8.3 7.3 11.6 5.9 6.7 12.4 11.6 18.8 14.6 3.2 1.5 6.3 2.7 9.2 3.5 2.9.9 5.6 1.5 8.1 2 4.9.9 8.8 1.3 11.5 1.7 2.6.3 4 .5 4 .6 0 .1-1.4.1-4.1 0-2.7-.1-6.6-.3-11.6-1.1-2.5-.4-5.3-.9-8.3-1.7-3-.8-6.2-1.9-9.5-3.4-6.7-2.9-13.6-7.9-19.8-14.7-3.1-3.4-5.8-7.5-7.9-12.2-2-4.7-3.2-10-3.2-15.5s1.1-11.2 3.3-16.6c1.1-2.7 2.4-5.3 3.9-7.9 1.5-2.6 3.3-5 5.4-7.3 4.1-4.6 9.2-8.4 14.6-11.7 2.7-1.7 5.4-3.2 8.3-4.8 2.8-1.6 5.8-3 8.8-4.4 3-1.4 6.1-2.5 9.3-3.6 1.6-.5 3.2-1 4.9-1.4.8-.2 1.6-.4 2.5-.6l2.5-.5c6.7-1.4 13.7-1.9 20.7-1.5 7 .4 13.9 1.4 20.5 3.4s12.8 5 18.3 8.7c5.5 3.7 10.5 8.1 14.4 13.2 2 2.5 3.7 5.3 5.1 8 1.5 2.7 2.8 5.6 3.9 8.5 2.1 5.8 2.9 12 2 17.9-.4 2.9-1.2 5.8-2.3 8.4-1.1 2.6-2.6 5.1-4.1 7.3-1.5 2.2-3.2 4.3-4.8 6.3-1.6 2-3.3 4-5.1 5.8-3.5 3.6-7.2 6.7-10.9 9.3-7.5 5.3-15.3 8.5-22.3 10.5-3.5 1-6.8 1.5-9.9 2-3.1.4-5.9.6-8.5.6-5.1.1-9-.2-11.7-.4-2.9-.4-4.3-.6-4.2-.7z"></path><path stroke="#000" stroke-miterlimit="10" d="M460.3 489.7c.1-.2.6-.1 1.3-.1.7 0 1.8-.1 2.9-.7 1.1-.6 2.2-1.6 2.5-2.9.1-.6.1-1.3-.2-2-.3-.7-.8-1.3-1.5-1.8s-1.5-.8-2.2-.9c-.7-.1-1.4.1-2 .4-1.2.7-1.9 2-2.1 3.2-.2 1.2-.1 2.2.2 2.9.2.7.4 1.1.3 1.3-.1.1-.7 0-1.4-.6-.7-.7-1.3-2-1.4-3.8 0-.9.2-1.8.6-2.8.4-1 1.1-2 2.2-2.7 1.1-.7 2.5-1.2 3.9-1.1 1.4.1 2.7.6 3.9 1.5 1.1.9 2 2 2.5 3.3.5 1.3.5 2.8.1 4-.4 1.2-1.2 2.2-2 2.9-.8.7-1.7 1.1-2.6 1.3-1.7.5-3.2.2-4-.3-.8-.5-1.1-1-1-1.1zM496.5 485.6c.1-.2.6-.1 1.4 0 .7.1 1.8.1 2.9-.4 1.1-.5 2.2-1.4 2.5-2.8.3-1.3-.2-3.2-1.4-4.2-1.1-1-2.9-1-4.2-.3-.7.3-1.2.8-1.6 1.3-.2.3-.3.5-.4.8-.1.3-.2.5-.2.8-.1 1.1.3 2.1.7 2.6.4.5.9.8.8 1 0 .2-.6.5-1.6 0-1-.4-2-1.7-2.3-3.6 0-.5-.1-1 0-1.5s.3-1.1.5-1.6c.5-1 1.4-1.9 2.4-2.5 1.1-.6 2.3-1 3.7-1 1.4 0 2.9.5 4.1 1.5 2.3 2 2.9 5 2.2 7.5-.4 1.2-1.2 2.3-2 2.9-.9.7-1.8 1-2.7 1.2-1.8.3-3.2-.1-4-.6-.7-.4-.9-.9-.8-1.1zM535.6 482.3c0-.5 1.9-.6 3.8-2.4.9-.9 1.7-2.2 1.7-3.6s-.8-3.1-2.2-3.9c-.7-.4-1.4-.6-2.1-.5-.7.1-1.4.4-2 .8-1.2.9-1.7 2.2-1.6 3.3.1 1.1.7 2.1 1.1 2.9.4.7.5 1.2.4 1.4-.2.1-.6 0-1.3-.5-.7-.5-1.8-1.4-2.4-3.2-.6-1.8 0-4.4 1.8-6 .9-.8 2.1-1.6 3.5-1.8 1.5-.2 3 .1 4.2.9 2.5 1.6 3.7 4.3 3.5 6.8-.3 2.6-1.8 4.3-3.2 5.2-1.5.9-2.9 1.2-3.8 1.1-.9 0-1.4-.3-1.4-.5zM573.1 452.7c-.5.1-1.5-2.2-3.5-5.8-.5-.9-1-1.9-1.7-2.9-.6-1-1.3-2.1-2-3.2-1.5-2.2-3.3-4.6-5.3-6.9-2.1-2.3-4.2-4.4-6.2-6.1-1-.9-2-1.7-2.9-2.4-.9-.8-1.8-1.4-2.7-2-3.3-2.4-5.5-3.7-5.3-4.2.2-.4 2.8.2 6.5 2.2.9.5 2 1.1 3 1.8 1.1.7 2.1 1.5 3.3 2.3 2.2 1.8 4.5 3.9 6.7 6.3 2.2 2.5 4 5 5.4 7.4.7 1.2 1.4 2.4 1.9 3.5.6 1.1 1 2.2 1.4 3.2 1.5 4.1 1.8 6.7 1.4 6.8zM582.5 452.6c-.5 0-1-2.2-2-5.7-.3-.9-.5-1.8-.9-2.8-.3-1-.8-2.1-1.2-3.2-.9-2.2-2-4.5-3.4-6.9-1.4-2.4-2.9-4.5-4.3-6.4-.7-.9-1.4-1.8-2.1-2.6-.7-.8-1.4-1.5-2-2.2-2.5-2.6-4.2-4.2-3.9-4.6.2-.3 2.4.5 5.5 2.9.8.6 1.6 1.2 2.4 2 .8.7 1.7 1.6 2.5 2.6 1.7 1.9 3.3 4.1 4.8 6.7 1.5 2.5 2.6 5.1 3.4 7.5.4 1.2.7 2.4 1 3.5.3 1.1.4 2.1.6 3.1.4 3.7 0 6.1-.4 6.1z"></path><ellipse cx="340.4" cy="572.7" stroke="#000" stroke-miterlimit="10" rx="4" ry="1.6" transform="rotate(14.917 340.387 572.756)"></ellipse><ellipse cx="346.1" cy="560.1" stroke="#000" stroke-miterlimit="10" rx="3.4" ry="1.6" transform="rotate(40.43 346.09 560.042)"></ellipse><path stroke="#000" stroke-miterlimit="10" d="M363.7 546.8c.8.4.1 3.7-1.2 7.7-1.3 3.9-2.7 7.1-3.6 6.9-.9-.2-.9-3.8.5-7.9 1.3-4.2 3.5-7.1 4.3-6.7zM298.6 688.1c-.8-.4.4-4.2 3.2-8 2.8-3.8 6.1-6 6.7-5.4.6.6-1.4 3.7-4.1 7.3-2.7 3.7-5 6.6-5.8 6.1zM315.8 692.3c-.4.1-1-.6-1.4-1.8-.4-1.2-.5-3-.1-4.9.4-1.9 1.2-3.4 2.1-4.4.8-1 1.6-1.3 2-1.1.7.6-.2 3.1-.9 6.1-.7 3.3-.8 5.9-1.7 6.1zM331.4 695.8c-.9.2-2.3-3-2.6-7.2-.3-4.2.8-7.6 1.6-7.5.9.1 1.3 3.3 1.6 7.3.3 3.9.3 7.2-.6 7.4zM372.7 304.1c-1-.1.5-17.3-.1-38.6-.6-21.2-3.1-38.3-2.2-38.5.8-.2 4.8 16.9 5.4 38.4.7 21.5-2.3 38.8-3.1 38.7z"></path><path stroke="#000" stroke-miterlimit="10" d="M593.6 248.5c-.2 0-.7-3.4-1.3-9.6-.2-1.6-.3-3.3-.5-5.2-.2-1.9-.2-4.1-1.1-5.5-1-1.5-3.2-1.8-5.6-1.7-2.5.2-5.1.4-7.9.6-22.2 1.8-53 3.4-87.1 3.2-34.1-.2-64.8-2-87.1-4.1-5.6-.5-10.6-1-15-1.5-4.3-.5-8.1-.3-11 .6-1.4.4-2.6 1-3.5 1.7-.9.7-1.5 1.4-1.8 2.1-.3.7-.5 1.3-.6 1.7-.1.4-.2.6-.2.6s-.1-.2-.1-.7c0-.4.1-1.1.3-1.9.3-.8.9-1.8 1.8-2.6 1-.8 2.2-1.6 3.8-2.1 3-1.1 7-1.6 11.5-1.2 4.4.3 9.4.7 15 1 22.2 1.4 52.9 2.9 86.9 3.1 34 .2 64.7-1 86.9-2.2 2.8-.1 5.5-.3 8-.4 1.3 0 2.6 0 3.9.4 1.3.4 2.6 1.2 3.3 2.3.7 1.2.9 2.4 1 3.4.1 1.1.1 2 .2 3 .1 1.9.2 3.6.2 5.2.2 6.3.2 9.7 0 9.8z"></path><path stroke="#000" stroke-miterlimit="10" d="M592.5 246.1c.1 0 .3.9.5 2.7.2 1.8.5 4.4.7 7.8.4 6.8.6 16.6-.7 28.8-.3 3-.7 6.2-1.2 9.5-.3 1.6-.4 3.3-1.1 5.2-.3.9-.9 1.9-1.7 2.7-.8.8-1.9 1.2-2.8 1.5-2 .6-3.7.6-5.5.9-1.8.2-3.7.5-5.6.8-3.8.5-7.6 1-11.6 1.5-15.9 1.9-33.5 3.6-51.9 4.7-36.9 2.3-70.4 1.9-94.6.8-12.1-.6-21.9-1.3-28.6-1.9-6.7-.7-10.5-1.1-10.4-1.3 0-.2 3.8-.2 10.5.1 6.8.2 16.5.6 28.6.9 24.2.5 57.6.5 94.4-1.8 18.4-1.1 35.9-2.7 51.8-4.4 4-.4 7.8-.8 11.6-1.3 1.9-.2 3.7-.5 5.6-.7 1.8-.2 3.7-.4 5.2-.8s2.3-1.2 2.9-2.5c.5-1.3.7-3.1 1-4.7.6-3.2 1-6.3 1.4-9.3 1.5-11.9 1.7-21.7 1.7-28.5-.3-7-.5-10.7-.2-10.7zM547.5 246.5c0 .1-.5.3-1.5.7-.5.2-1.2.4-1.9.5-.8.2-1.7.4-2.7.6-4.1.8-10.1 1.2-17.5 1-7.4-.1-16.1-.9-25.7-.7-4.8.1-9.8.7-14.9 1.5-5.2.8-10.5 1.9-16.1 2.8-5.6.9-11.1 1.5-16.4 1.7-5.3.2-10.5.2-15.3.1-9.7-.3-18.4-.6-25.8-.9-7.3-.3-13.3-.6-17.4-.9s-6.4-.5-6.4-.8 2.3-.4 6.4-.5c4.1-.1 10.1-.2 17.4-.2 7.3 0 16.1.1 25.8.2s20.3-.1 31.2-2c5.5-.9 10.9-2 16.1-2.8 5.3-.8 10.4-1.4 15.4-1.4 9.9-.1 18.6 1 25.8 1.4 7.3.5 13.2.4 17.2 0 1-.1 1.9-.2 2.7-.3.8-.1 1.4-.2 2-.2 1 .1 1.6.1 1.6.2z"></path><path stroke="#000" stroke-miterlimit="10" d="M535.2 267.8c0 .4-8.6-.1-22.3-1.3-3.4-.3-7.1-.6-11.1-.6s-8.2.2-12.5 1.2c-2.1.5-4.2 1.2-6.4 2.1-1.1.5-2.2.9-3.4 1.4-1.2.4-2.5.8-3.8 1-5.2.9-10.5.3-15.7-.3-6.8-.8-13.4-1.4-19.5-1.2-6.2.2-11.9 1.5-16.7 3.9l-3 1.5.9-3.2c.1-.4.1-.6 0-.8-.1-.2-.6-.5-1-.7-1-.4-2.2-.6-3.4-.6-.6 0-1.2.1-1.7.1-.6.1-1.3.2-1.9.3-1.2.2-2.5.3-3.6.4-4.7.4-8.9.2-12.3-.2-6.8-.9-10.4-2.4-10.3-2.6.1-.3 3.8.6 10.5.9 3.3.1 7.3.1 11.9-.4 1.1-.1 2.3-.3 3.5-.5.6-.1 1.2-.2 1.8-.4.7-.1 1.4-.2 2.1-.2 1.4 0 2.9.1 4.5.7.8.3 1.6.7 2.3 1.6.1.2.3.5.4.8.1.3.2.6.2.8v.9c0 .3-.1.5-.2.8l-2-1.7c5.1-2.8 11.4-4.2 17.8-4.5 6.5-.3 13.2.3 20.1 1.1 5.2.6 10.2 1.2 14.8.4 2.3-.4 4.4-1.2 6.6-2.1 2.2-.9 4.6-1.7 6.9-2.2 4.6-1 9.1-1.1 13.2-1 4.1.2 7.9.6 11.3 1.1 13.7 1.7 22.1 3.1 22 3.5zM544.6 288.3c.1.2-1.8 1.1-5.5 2.2-3.6 1.1-9.1 2.4-16 3-3.5.3-7.3.4-11.4.1-2.1-.1-4.2-.3-6.4-.6s-4.4-.6-6.7-.9c-2.3-.3-4.6-.4-6.9-.4-2.3.1-4.6.4-6.7 1.4-.5.3-1 .5-1.5.8-.1.1-.3.2-.4.3l-.1.1s0 .1.1.1c0 .1.1.1.2.2l.2.2.1.1s.1 0 .2.1c.9.3 2 .4 2.9.1.5-.1.9-.4 1.2-.6.3-.3.5-.6.7-1l2.3 1.9c-.8.5-1.7.9-2.7 1.1-.9.2-1.9.3-2.8.3-1.9 0-3.7-.4-5.4-1.1-3.5-1.2-6.3-3.3-9.2-4.8-1.8-.9-3.6-1.6-5.4-1.7-1.7-.1-3.5.4-4.9 1.3-.7.5-1.3 1-1.6 1.6-.1.2-.2.3-.2.5-.1.2-.2.4-.1.4 0 .1-.1.3 0 .4.1.1.2.2.3.2l.9.3c.7.1 1.3-.1 1.8-.4l.3 2.8c-6.1-2.4-12-4.4-17.7-5.2-2.8-.4-5.6-.4-8.2.1-.6.1-1.3.3-1.9.4l-1.8.6c-.6.2-1.1.5-1.7.8-.3.1-.5.3-.8.5-.4.3-.9.5-1.3.8l-.7.4c-.1 0-.1.1-.2 0l-.1-.1-.3-.3c-.4-.3-.7-.7-1.1-1-.1-.1-.2-.2-.3-.2l-.2-.1-.3-.3c-.2-.2-.4-.4-.7-.5-1-.6-2-1.1-3-1.4-2.1-.7-4.2-.9-6.2-.8-2 .1-3.8.6-5.4 1.4-.4.2-.8.4-1.1.6-.4.2-.7.4-1 .7-.9.6-1.7 1.6-2.5 2.1-.3-.6-.6-1.1-1-1.7-.2-.2-.3-.4-.5-.6l-.4-.4c-.5-.5-1.1-.9-1.7-1.1-1.2-.5-2.3-.7-3.2-.7-1.8 0-2.8.6-2.8.5-.1-.1.7-.9 2.8-1.3 1-.1 2.3-.1 3.7.4.7.3 1.4.6 2.2 1.2.2.1.4.3.5.4l.3.3c.2.2.4.4.5.7 0 .1.1 0 .1 0l.1-.1.3-.3.3-.3.4-.3c.3-.3.7-.6 1.1-.8.4-.3.8-.5 1.2-.7 1.7-.9 3.8-1.6 6-1.8 2.2-.2 4.7-.1 7.1.7 1.2.3 2.4.9 3.6 1.6.3.2.6.4.8.6l.4.3.2.2c.1 0 .1.1.1.1l.3.3c.1 0 .1.1.2.1l.2-.1.4-.2c.2-.1.6-.4.9-.5.6-.3 1.3-.6 1.9-.9.7-.2 1.4-.5 2.1-.7.7-.2 1.4-.3 2.1-.5 2.9-.6 6-.6 9.1-.3 6.2.7 12.3 2.7 18.5 5.1l2.8 1.1-2.5 1.7c-1.2.8-2.6 1.1-3.9.9-.7-.1-1.3-.2-2-.5-.8-.4-1.5-.9-2-1.5l-.2-.2V294.6c0-.4.1-.9.2-1.3.1-.5.2-.7.3-1.1.1-.3.3-.6.4-.9.7-1.1 1.6-2 2.6-2.7 2.1-1.3 4.5-2 6.9-1.8 2.4.2 4.6 1.1 6.6 2.1 3.2 1.6 5.9 3.6 8.8 4.6 2.9 1.1 5.9 1.3 8.1-.1l4.3-2.7-1.9 4.6c-.4.9-.9 1.7-1.7 2.3-.7.6-1.5 1-2.4 1.2-1.7.5-3.4.4-5-.2-.2-.1-.4-.2-.7-.3-.2-.1-.5-.3-.7-.5-.5-.3-.8-.7-1.2-1.1-.3-.4-.5-.9-.8-1.3-.1-.2-.3-.5-.3-.7l.5-.5 1.1-1.1c.2-.2.4-.3.6-.5l.7-.5c.6-.4 1.3-.7 1.9-1 2.6-1.2 5.3-1.5 7.9-1.6 2.6-.1 5 .2 7.3.5s4.6.7 6.7 1.1c2.1.3 4.2.6 6.2.8 4 .3 7.7.4 11.1.3 6.8-.3 12.2-1.3 15.8-2 3.8-1.6 5.8-2.1 5.9-1.9z"></path><path fill="#e29a59" d="M719.1 57.9c-7.6 16.4-6.7 27.4-4.1 34.6 5.3 15 17.7 17.4 23.1 32.9 4.8 14 3.3 26.3 3.3 26.3-1.3 10.3-5.1 15.6-2.5 18.9 2.7 3.4 10.1-3.2 22.2-1.6 6.3.8 12.3 3.3 12.3 3.3 5.4 2.2 6.2 3.6 8.2 3.3 5.3-.9 5-11.2 10.7-18.9 4-5.5 7.4-3.7 24.7-11.5 17.5-7.9 19.2-11.6 19.8-13.2 2.4-6.9-1.9-15.1-6.6-19.8-7-6.9-13.3-4.4-22.2-8.2-18.3-7.8-12.5-27.2-32.9-43.6-3-2.4-18.4-14.8-37-11.5-8.9 1.4-15.4 5.9-19 9z"></path><path stroke="#000" stroke-miterlimit="10" d="M732.5 156.7c-.2-.1.1-1.6.4-4.3.3-2.7.4-6.6-.7-11.3-.6-2.3-1.4-4.8-2.7-7.2-1.3-2.5-3.1-4.8-5.2-7.2-2.2-2.3-4.7-4.7-7.1-7.4-2.4-2.8-4.7-5.8-6.6-9.2-1.8-3.4-3.3-6.9-4.3-10.5-.3-.9-.4-1.8-.7-2.6-.1-.4-.2-.9-.3-1.3-.1-.4-.1-.9-.2-1.3-.1-.9-.3-1.7-.4-2.6-.1-.9-.1-1.7-.2-2.6-.5-6.7.7-12.8 2.5-17.6.4-1.2 1-2.3 1.5-3.3.3-.5.5-1 .8-1.5.3-.5.6-.9.8-1.3 1-1.7 2.1-3.1 3.1-4.1 1-1 2-1.6 2.7-1.9.7-.3 1.1-.3 1.2-.2.1.2-1.3.8-3 2.9-.8 1-1.7 2.4-2.5 4.2-.2.4-.4.9-.7 1.3l-.6 1.5c-.4 1-.9 2-1.2 3.2-1.4 4.6-2.3 10.3-1.7 16.6l.3 2.4c.1.8.3 1.6.4 2.4.1.4.1.8.2 1.2l.3 1.2c.2.8.4 1.7.7 2.5 1 3.3 2.4 6.6 4.1 9.8 1.7 3.2 3.9 6.1 6.1 8.7 2.3 2.6 4.8 5 7 7.5s4.1 5.2 5.4 8c1.3 2.7 2.1 5.5 2.6 8 .9 5.1.4 9.2-.3 12-.8 2.7-1.6 4.1-1.7 4zM821.8 105.6c0 .1-.4.3-1.1.5-.8.3-1.9.4-3.5.5-.8 0-1.6 0-2.6-.1-.5-.1-1-.1-1.5-.2s-1-.2-1.5-.4c-2.1-.6-4.4-1.5-6.8-3-4.7-2.9-9.5-7.5-13.3-13.6-3.9-6-7-13.1-11.1-19.9-2.1-3.4-4.3-6.5-6.9-9-2.6-2.6-5.5-4.6-8.5-6.2-6-3.1-12.1-4.3-17.3-4.4-5.1-.1-9.3.8-12.1 1.6-.7.2-1.3.4-1.9.5-.5.2-1 .3-1.4.5-.7.2-1.2.3-1.2.2s.3-.4.9-.8c.3-.2.8-.5 1.3-.8.5-.3 1.1-.5 1.8-.8 2.8-1.2 7-2.5 12.5-2.7 5.4-.2 12.1.8 18.6 4 3.3 1.6 6.5 3.8 9.3 6.6 2.9 2.8 5.3 6.1 7.5 9.6 4.3 7.1 7.3 14.2 10.9 20 3.5 5.9 7.8 10.4 12 13.3 2.1 1.4 4.2 2.5 6.1 3.2.5.2.9.3 1.4.5.5.1.9.2 1.3.3.8.2 1.6.3 2.3.4 1.4.1 2.6.2 3.3.1 1-.1 1.4 0 1.5.1zM758.8 171.6c.2.4-1.3 1.5-3.9 2.7-1.3.6-2.9 1.3-4.8 1.8s-4.1.9-6.4.8c-4.8-.2-8.8-2.5-10.7-5-1-1.2-1.5-2.4-1.6-3.3-.2-.8-.1-1.3.1-1.4.5-.2 1.2 1.5 3.2 3.1 1.9 1.6 5.3 3.2 9.1 3.4 3.9.1 7.6-.9 10.3-1.5 2.7-.7 4.5-1 4.7-.6zM827.4 125.5c-.2.2-1.1-.6-3.2-.9-2.1-.3-5.1.5-8.7 2-7.4 3.1-17.6 7.1-28.5 12.5-5.4 2.7-10.4 5.5-14.9 8.3-4.4 2.8-8.2 5.6-11.3 8-6.2 5-9.5 8.6-9.9 8.2-.3-.2 2.5-4.4 8.4-10 3-2.7 6.7-5.8 11.2-8.8 4.4-3 9.5-6 15-8.7 11-5.5 21.5-9.2 29.1-11.8 3.8-1.3 7.4-1.8 9.8-1.1 1.2.3 2 .9 2.4 1.3.5.6.7.9.6 1z"></path><path stroke="#000" stroke-miterlimit="10" d="M818.5 145.4c-.1-.2.2-.7 1-1.6.8-.8 2.1-1.9 3.8-3 1.7-1.1 3.7-2.3 5.9-3.7 1.1-.7 2.2-1.4 3.2-2.3 1-.8 2-1.8 2.7-2.9 1.7-2.2 2.1-4.6 2-6.9-.2-2.3-1-4.4-1.9-5.9-.9-1.6-2-2.6-2.8-3.3-.8-.7-1.3-1.1-1.2-1.3 0-.1.2-.1.5-.1s.8.1 1.3.3c1.1.4 2.7 1.3 4 3 1.4 1.6 2.7 4 3.1 6.9.2 1.5.1 3-.2 4.6l-.3 1.2c-.2.4-.3.8-.5 1.2-.4.7-.8 1.5-1.3 2.2-1 1.4-2.2 2.5-3.4 3.5-1.2 1-2.4 1.7-3.6 2.4-2.4 1.3-4.5 2.3-6.3 3.1-1.8.8-3.2 1.5-4.2 2-1.1.5-1.7.8-1.8.6zM785.3 155.4c.1-.1.9.2 1.8 1.3s1.9 3.1 2.1 5.7c.3 2.6-.4 5.8-2 8.8-.8 1.5-1.8 2.9-3 4.3-.6.7-1.3 1.4-2.1 2.1-.8.6-1.7 1.2-2.9 1.6-1.1.4-2.5.4-3.7-.1-1.2-.5-2.1-1.5-2.7-2.4-.6-.9-.9-1.9-1.1-2.8-.2-.9-.3-1.7-.4-2.6-.3-3.4.2-6.4 1-8.8.8-2.4 1.9-4.1 2.8-5.2.9-1.1 1.5-1.5 1.7-1.4.4.3-1.3 2.8-2.3 7.2-.5 2.2-.7 4.9-.3 7.8.2 1.4.6 3 1.2 4.1.3.5.7.9 1.2 1 .4.2.9.2 1.5 0s1.2-.6 1.8-1c.6-.5 1.1-1 1.7-1.6 1.1-1.2 2-2.5 2.8-3.7 1.5-2.5 2.3-5.1 2.3-7.2.1-2.2-.4-4-.9-5.1-.3-1.2-.7-1.8-.5-2z"></path><ellipse cx="703.7" cy="166.6" stroke="#000" stroke-miterlimit="10" rx="12.2" ry="1.6" transform="rotate(163.961 703.7 166.578)"></ellipse><ellipse cx="705.9" cy="188.6" stroke="#000" stroke-miterlimit="10" rx="11.4" ry="1.6" transform="rotate(138.973 705.925 188.609)"></ellipse><ellipse cx="724.2" cy="198.7" stroke="#000" stroke-miterlimit="10" rx="10.7" ry="1.6" transform="rotate(121.83 724.239 198.74)"></ellipse><path stroke="#000" stroke-miterlimit="10" d="M745.7 208.9c-.9.2-2.3-2.4-2.5-5.9-.2-3.5.8-6.3 1.7-6.2.9.1 1.3 2.8 1.5 6 .2 3.1.2 5.8-.7 6.1zM783.2 48.2c-.4.3-1.9-1.2-4.4-3.2-.3-.2-.7-.5-1-.8-.4-.3-.7-.5-1.1-.8-.8-.6-1.7-1-2.6-1.6-1.9-1-4-2-6.3-2.8-2.3-.8-4.6-1.3-6.7-1.6-1.1-.1-2.1-.3-3-.3-.5 0-.9-.1-1.4-.1h-1.3c-3.2 0-5.3.3-5.4-.2-.1-.4 1.8-1.5 5.2-2.1.4-.1.9-.1 1.4-.2.5-.1 1-.1 1.5-.1 1-.1 2.1 0 3.3 0 2.3.2 4.9.6 7.4 1.5s4.8 2.1 6.8 3.3c1 .7 1.9 1.3 2.6 2 .4.3.8.7 1.1 1 .3.3.6.7 1 1 2.4 2.8 3.2 4.8 2.9 5zM797 46.6c-.8.4-3.1-2.6-6.6-5.6-3.4-3-6.7-4.9-6.4-5.8.2-.4 1.3-.5 2.9 0 1.6.5 3.7 1.6 5.7 3.3 2 1.7 3.3 3.7 4 5.2.7 1.6.8 2.7.4 2.9zM841.9 66.5c.8.4-.9 4.6-4.4 8.8-3.5 4.1-7.4 6.4-8 5.7-.6-.7 2.2-3.9 5.5-7.8s6.1-7.1 6.9-6.7z"></path><ellipse cx="852.4" cy="83.1" stroke="#000" stroke-miterlimit="10" rx="12" ry="1.6" transform="rotate(-30.098 852.36 83.133)"></ellipse><path stroke="#000" stroke-miterlimit="10" d="M883.6 105.8c.1.9-6.5 2.2-14.5 3.6-8.1 1.4-14.6 2.5-14.9 1.6-.2-.8 6.1-3.4 14.3-4.8 8.3-1.5 15.1-1.3 15.1-.4z"></path><path fill="#edcdbc" d="M1325.2 326.4c-46.7-2.5-84.6-2.6-110.1-2.4-51.8.5-76.2 3.1-118.5 0-36.3-2.7-65.4-8-83.8-12-6.8 4-15.3 3.5-21.5-1.2-6.3-4.7-9.1-12.8-7.2-20.4.7-25 .8-51.4 0-79-.8-29-2.5-56.5-4.8-82.6-5.9-8.7-4.8-20.4 2.5-27.5 7.7-7.5 20-8.1 28.6-1.2 7.5 0 20.7.1 37.1 0 116.3-.4 174.5-.5 186.8-2.4 12.5-1.9 38.7-6.4 71.8 0 11.5 2.2 20.6 5.2 26.3 7.2-.1 28.2-.4 56.9-1.2 86.2-1 39.3-2.6 77.6-4.8 114.9l-1.2 20.4z"></path><path fill="#ff4f03" d="M1002.9 142.6c5.8-3.2 12.8-2.5 17.1 1.4 6.1 5.6 5.4 16.5-.5 21.2-2.9 2.3-7.5 3.4-11.1 1.8-6.2-2.6-9.7-12.8-5.5-24.4z"></path><path stroke="#000" stroke-miterlimit="10" stroke-width="1.5" d="M972.6 320.7c-.8 0-.6-12.4-1.2-32.4-.1-2.5-.2-5.1-.3-7.8-.1-2.7-.3-5.6-.4-8.5-.2-5.9-.6-12.1-1-18.7-.8-13.2-1.8-27.7-2.8-42.9-1-15.2-1.8-29.8-2.3-43.1-.2-6.6-.4-12.9-.4-18.8 0-3-.1-5.8 0-8.5 0-2.7.1-5.4.1-7.9 0-5 .3-9.6.5-13.5.1-2 .2-3.8.3-5.5.2-1.7.3-3.3.4-4.7.6-5.6 1-8.7 1.4-8.6.8 0 .4 12.4.9 32.4.1 2.5.1 5.1.2 7.8s.2 5.6.3 8.5c.2 5.9.6 12.1.9 18.7.7 13.2 1.7 27.7 2.7 42.9 1 15.2 1.9 29.8 2.4 43 .2 6.6.5 12.9.5 18.8 0 3 .1 5.8.1 8.5s0 5.4-.1 7.9c0 5-.2 9.6-.4 13.5-.1 2-.2 3.8-.3 5.6-.1 1.7-.3 3.3-.4 4.7-.4 5.5-.8 8.6-1.1 8.6z"></path><path stroke="#000" stroke-miterlimit="10" d="M1333.9 99.3c0 .1-1.2.3-3.6.5-2.4.1-5.9.2-10.4-.2s-10-1.2-16.3-2.3c-6.3-1.1-13.5-2.6-21.4-3.6-7.9-1-16.7-1.2-26.2-1-4.7.1-9.6.2-14.7.3-5 .1-10.2.3-15.6.4-21.3.5-44.8 1.1-69.4 1.7-49.2 1.1-93.7 1.9-126 2.3-16.1.2-29.2.3-38.2.3-4.5 0-8 0-10.4-.1-2.4-.1-3.6-.1-3.6-.2s1.2-.2 3.6-.4c2.4-.2 5.9-.3 10.4-.5 9-.4 22.1-.9 38.2-1.4 32.2-1 76.8-2.2 126-3.3 24.6-.5 48-1 69.4-1.4 5.3-.1 10.5-.2 15.6-.3 5.1-.1 9.9-.2 14.7-.2 9.5 0 18.4.3 26.5 1.4 8.1 1.1 15.2 2.8 21.4 4 6.3 1.3 11.7 2.3 16.1 2.8 8.9 1.3 13.9.9 13.9 1.2z"></path><ellipse cx="1333.6" cy="211.7" stroke="#000" stroke-miterlimit="10" rx="104.2" ry="1.6" transform="rotate(90.267 1333.561 211.72) scale(1.00001)"></ellipse><path stroke="#000" stroke-miterlimit="10" d="M1327.5 322.9c0 .1-1.2.3-3.4.6-2.3.3-5.6.6-9.9 1-8.6.7-21.1 1.5-36.6 1.8-15.5.3-33.9.3-54.3-.3-20.4-.5-42.9-1.3-66.4-2.2-11.8-.4-23.3-.8-34.4-1.6-11.1-.7-21.8-1.9-32-3-20.3-2.4-38.5-4.3-53.9-5.6-15.4-1.3-27.9-2.1-36.5-2.7-4.3-.3-7.7-.5-9.9-.7-2.3-.2-3.5-.3-3.5-.5 0-.1 1.2-.2 3.5-.2s5.6 0 10 .1c8.6.2 21.2.7 36.6 1.7 15.4 1 33.8 2.6 54.1 4.9 10.2 1.1 20.8 2.2 31.8 2.8 11.1.7 22.6 1.1 34.3 1.5 23.6.9 46 1.7 66.4 2.4 20.4.7 38.8 1 54.2 1 15.4 0 27.9-.4 36.5-.8 4.3-.2 7.7-.3 9.9-.4 2.3.1 3.5.1 3.5.2zM986.6 213.2c-.4 0-1.3-5-2.2-13.3-.9-8.3-1.9-19.7-2.6-32.4-.7-12.7-.9-24.1-.9-32.4 0-8.3.3-13.5.8-13.5.9 0 2 20.5 3.4 45.7 1.4 25.3 2.5 45.8 1.5 45.9z"></path><path stroke="#000" stroke-miterlimit="10" d="M1130 118.1c0 .5-8.5.4-22.1.3H1084c-9 .1-18.9.2-29.3.5-10.4.3-20.3.7-29.3 1.2s-17.1.9-23.9 1.3c-13.6.8-22 1.4-22.1.9 0-.2 2.1-.6 5.8-1.2 3.8-.6 9.3-1.3 16-2 6.8-.7 14.9-1.4 23.9-2.1 9-.6 18.9-1.1 29.3-1.4 10.4-.3 20.3-.4 29.4-.3 9 .1 17.2.3 24 .7 6.8.3 12.3.7 16.1 1.1 4.1.5 6.2.8 6.1 1zM1130.9 210.9c-1-.1.5-20.4.3-45.5-.1-25.1-1.8-45.4-.9-45.5.4 0 1.4 5 2.3 13.2.9 8.2 1.7 19.6 1.8 32.2.1 12.6-.6 24-1.4 32.3-.7 8.3-1.7 13.3-2.1 13.3z"></path><path stroke="#000" stroke-miterlimit="10" d="M1130.7 211c0 .4-8 1.1-21 1.7-13 .6-31 1.3-50.8 1.8-9.9.3-19.4.5-28 .6-8.6.1-16.4.3-22.9 0-6.5-.2-11.8-.8-15.4-1.4-3.6-.6-5.6-1.2-5.5-1.4.1-.5 8 .8 21 .6 6.5 0 14.2-.4 22.8-.7 8.6-.3 18-.6 28-.8 19.8-.5 37.8-.8 50.8-.8 13-.3 21-.1 21 .4zM1070.8 203.1c-.2-.2 1-1.2 2.5-3.3.8-1 1.6-2.4 2.2-4.1.1-.2.2-.4.2-.6 0-.1.1-.2.1-.3l.1-.3c.1-.2.1-.5.1-.7 0-.2.1-.4.1-.7v-.3c-.1.1-.2.2-.3.2-.2.1-.3.2-.5.2-.1 0-.2.1-.3.1h-.8c-.8 0-1.6-.2-2.2-.6-.3-.2-.6-.5-.8-.8-.2-.3-.3-.7-.4-1.1-.1-.6-.1-1.1.1-1.7.2-.6.5-1.2.7-1.5.4-.6.8-1.2 1.2-1.9.8-1.3 1.7-2.5 2.6-3.9 1.6-2.4 3.3-4.9 5.1-7.5.2-.2.3-.4.5-.7h-.5l.8-.1c.5-.1.1 0 0 0h-.4c-2.2.2-4.4.4-6.5.6 1-1.6 1.9-3.2 2.8-4.7.7-1.1 1.3-2.2 2-3.2 1-1.7 2-3.3 3-4.8 1.9-3.1 3.6-5.7 5.1-8 2.9-4.4 4.8-7 5.2-6.8.3.2-1 3.1-3.4 7.8-1.2 2.4-2.7 5.2-4.5 8.3-.9 1.6-1.8 3.2-2.8 5-.2.4-.5.9-.7 1.3l-.3.5-.1.2c-.1.2-.2.5-.4.7l.5-.1h.1-.2l-.7.1H1079.7h.1l.9-.1c2.3-.2 4.6-.4 7-.7-1.1 1.6-2.3 3.3-3.4 5-2.1 3.1-4.2 6-6.1 8.9-.9 1.3-1.8 2.6-2.7 3.8-.4.6-.9 1.2-1.3 1.8-.2.3-.2.3-.3.4 0 .1-.1.2-.1.3 0 .4.4.6.7.6h.2c-.1 0 0 0 0 0h.2c.1 0 .2-.1.3-.1.2-.1.4-.1.6-.2l.6-.3c.9-.5 1.8-1 2.8-1.6.4 1.9-1 6.9-1.8 8-.9 1.8-2 3.2-3 4.2-2 2.4-3.5 2.9-3.6 2.7z"></path><path stroke="#000" stroke-miterlimit="10" d="M1117.5 197.6c-.3.1-1.2-1.2-2.9-3.5s-4.1-5.5-7.4-9l-1.7-1.7 2.5-.6c.4-.1.8-.2 1.3-.3-.1-.1-.1-.3-.2-.4l-.1-.2v-.1l-.1-.4c-.4-.9-.8-1.9-1.2-2.9-.8-2-1.6-4-2.5-6.1l-1-2.6 2.8.4h.5c.3 0 .6-.1.7-.3l-.2-.3c-.2-.3-.4-.5-.6-.8-1.3-1.7-2.5-3.4-3.7-5-2.3-3.2-4.4-6.1-6.2-8.6-3.5-4.9-5.5-8-5.2-8.3.3-.3 3 2.3 7 6.9 2 2.3 4.3 5 6.7 8.2 1.2 1.6 2.5 3.2 3.8 4.9l.5.7c.3.4.6.8.8 1.1.4.7.8 1.5 1.2 2.2-.8 1.2-2.5 2.3-4.5 2.5h-.8c-.2 0-.4 0-.7-.1l1.8-2.2c.8 2.1 1.6 4.2 2.4 6.1 1 2.6 1.9 5 2.8 7.4-1.7.3-3.3.6-4.9.8l.8-2.3c3.3 3.8 5.5 7.4 6.8 10 1.3 2.7 1.8 4.3 1.5 4.5zM1110.8 200.7c.2.4-1.6 1.8-4.9 3.2-1.7.7-3.7 1.4-6 2-2.3.6-4.9 1-7.7 1.2-2.8.2-5.4 0-7.8-.2-2.4-.3-4.5-.7-6.2-1.3-3.5-1-5.4-2.2-5.3-2.6.3-.9 8.6 1.6 19.1.9 10.4-.6 18.4-4.1 18.8-3.2z"></path><ellipse cx="1088.9" cy="210.2" stroke="#000" stroke-miterlimit="10" rx="3.2" ry="1.6" transform="rotate(80.984 1088.932 210.17)"></ellipse><ellipse cx="1099.5" cy="208.6" stroke="#000" stroke-miterlimit="10" rx="1.6" ry="2.4"></ellipse><path stroke="#000" stroke-miterlimit="10" d="M1003 166.3c.2-.2 1.2.5 3.1 1.2 1 .4 2.2.7 3.6.9 1.4.1 3.1 0 4.6-.6 3.2-1.3 5.6-5.2 6.4-10 .4-2.3.4-4.9 0-7.4-.3-1.3-.6-2.5-1.2-3.7-.6-1.2-1.2-2.3-2.1-3.2-.9-1-1.9-1.7-3-2.2-1.1-.5-2.3-.8-3.5-.8-2.4 0-4.7.9-6.6 2.3-.9.7-1.7 1.5-2.4 2.3-.7.9-1.2 1.8-1.6 2.7-.8 1.9-1.1 3.9-1.1 5.7 0 3.7 1.1 6.6 1.9 8.5.9 1.9 1.5 3 1.3 3.1-.2.1-1.1-.7-2.4-2.5-1.2-1.9-2.8-4.9-3.1-9-.2-2.1.1-4.4.9-6.8.4-1.2 1.1-2.3 1.9-3.4.8-1.1 1.8-2.1 2.9-3 2.2-1.7 5.1-3 8.4-3.1 3.2-.1 6.6 1.4 8.9 3.9 1.1 1.2 2 2.7 2.7 4.1.6 1.5 1.1 3 1.3 4.4.5 3 .4 5.9-.2 8.6-.6 2.7-1.6 5.1-3 7.2-1.4 2.1-3.4 3.6-5.5 4.3-2.1.7-4.1.6-5.7.3-1.6-.4-2.9-.9-3.9-1.5-1.9-1.2-2.7-2.2-2.6-2.3zM1061.5 205.7c-.3.8-17.3-5.4-37.9-13.9-5.2-2.1-9.9-4.2-14.5-4.9-4.5-.6-8.7.2-11.9 1.4-3.3 1.3-5.6 2.9-7.2 4.2-1.6 1.3-2.4 2-2.6 1.9-.2-.1.3-1.2 1.7-2.8 1.4-1.6 3.7-3.7 7.1-5.4 3.4-1.7 8-2.9 13.2-2.3 5.1.5 10.2 2.7 15.3 4.8 20.7 8.6 37.2 16.2 36.8 17z"></path><path stroke="#000" stroke-miterlimit="10" d="M1075.1 185.1c0 .9-9.6 1.1-20.7 4.7-2.8.9-5.3 1.9-7.7 2.8-2.4 1-4.6 1.8-6.6 2.2-2 .5-3.7.5-4.8.4-1.1-.1-1.7-.4-1.7-.6 0-.5 2.4-.5 5.9-1.9 1.7-.7 3.8-1.7 6.1-2.8 2.3-1.1 5-2.3 7.9-3.2 5.8-1.9 11.3-2.5 15.3-2.5 3.9-.1 6.3.5 6.3.9z"></path><ellipse cx="1232" cy="146.7" stroke="#000" stroke-miterlimit="10" rx="77.6" ry="1.6" transform="matrix(1 -.00252 .00252 1 -.366 3.111)"></ellipse><path stroke="#000" stroke-miterlimit="10" d="M1176.4 163.7c-.1.9-5 1-11 .8-6-.1-10.9-.4-11-1.3-.1-.9 4.8-2.1 11-1.9 6.2.1 11.1 1.5 11 2.4zM1156.8 124.5l-.1-.1c0-.1 0-.2.2-.3.2-.1.5 0 .6.2.1.1.2.3.3.4.1.2.1.4 0 .8-.1.2-.2.4-.6.5h-.4c-.4 0-.7-.2-1-.5-.3-.2-.4-.5-.5-.7-.1-.2-.2-.5-.3-.7-.1-.2-.1-.4-.2-.6-.1-.4-.2-.8-.3-1.3-.2-.9-.4-1.9-.5-3-.6-4.2-.3-7.7.6-7.9.9-.1 2.1 3.2 2.6 7.4.1 1.1.2 2.1.3 3v2.3l-.1.1c-.5.4-.5.5-.6.4-.1.6.1.2 0 .3l.1.1h-.1c-.1-.1-.4-.1-.3-.1.1 0 0 0 .2-.1s.2-.2.2-.2c.2.2 0 0-.1 0zM1296.5 119.8c-.2 0-.5-1.1-1.1-3.2-.3-1.1-.6-2.4-.9-3.9-.2-.8-.4-1.6-.6-2.5l-.3-1.2c-.1-.3-.1-.5-.2-.8-.2 0-.5.1-.8.1-.4 0-.7.1-1.1.1-.9.1-1.9.1-2.9.2-2 .1-4.1.3-6.4.4-4.5.3-9.5.6-15 .8-10.9.5-23.3 1-36.6 1.3-21.1.5-40.1.4-53.9.1-6.9-.1-12.5-.4-16.3-.6-3.9-.2-6-.5-6-.7 0-.5 8.5-.8 22.3-1 13.8-.3 32.8-.6 53.9-1.1 26.8-.7 50.5-1.2 64.3-1.6.2 1.3.4 2.5.6 3.6.1.9.2 1.7.4 2.5.2 1.6.4 2.9.5 4 .2 2.3.3 3.5.1 3.5z"></path><path stroke="#000" stroke-miterlimit="10" d="M1291.6 121.7c0 .4-7.5 1.2-19.6 1.9-12.1.7-28.9 1.4-47.4 1.8-18.5.4-35.3.3-47.4.1-12.1-.2-19.6-.7-19.6-1.1 0-.5 7.5-.8 19.6-1.2 12.1-.4 28.9-.7 47.4-1.1 18.5-.4 35.2-.7 47.4-.8 12.1-.1 19.6 0 19.6.4z"></path><ellipse cx="1226.6" cy="175.5" stroke="#000" stroke-miterlimit="10" rx="81.5" ry="1.6" transform="translate(-.199 1.395)"></ellipse><path stroke="#000" stroke-miterlimit="10" d="M1308.1 162.2c0 .5-5.8.9-15.2 1.3-9.4.4-22.4.7-36.8.9-14.4.2-27.4.1-36.8-.1-2.3-.1-4.5-.1-6.4-.2-1.9-.2-3.6-.5-4.9-.9-2.6-.9-3.7-2-3.6-2.2.1-.2 1.4.5 3.9.9 1.2.2 2.8.3 4.6.3 1.8 0 3.9-.2 6.3-.2 9.4-.4 22.4-.7 36.8-.9 14.4-.2 27.4-.1 36.8.1 9.4.2 15.3.5 15.3 1zM1314.4 192.9c0 .2-2.4.6-6.7 1-4.3.5-10.6 1-18.3 1.5-15.4 1-36.8 1.8-60.5 1.9-23.6 0-45-.7-60.5-1.6-7.7-.5-14-.9-18.3-1.4-4.3-.4-6.7-.8-6.7-1 0-.2 2.4-.3 6.7-.3 4.3 0 10.6.2 18.3.3 15.5.3 36.8.7 60.4.7 23.6-.1 44.9-.5 60.4-1 7.7-.2 14-.4 18.3-.4 4.5 0 6.9.1 6.9.3zM1163 209c0 .9-4.3 1.6-9.6 1-5.3-.6-9.4-2.2-9.2-3 .2-.9 4.4-.8 9.5-.2 5.2.5 9.3 1.3 9.3 2.2z"></path><ellipse cx="1221.5" cy="208.3" stroke="#000" stroke-miterlimit="10" rx="38.8" ry="1.6" transform="rotate(-1.146 1221.94 207.243)"></ellipse><ellipse cx="1306.6" cy="205.2" stroke="#000" stroke-miterlimit="10" rx="15.7" ry="1.6" transform="rotate(-3.221 1306.532 205.188) scale(.99998)"></ellipse><path stroke="#000" stroke-miterlimit="10" d="M1302.5 230.9c0 .1-1.1.2-3.2.2s-5.2 0-9.2.1c-8 .1-19.5.5-33.8 1.3-14.3.9-31.3 2.1-50.2 2.8-18.9.8-39.7 1.4-61.5 1.5-43.7.3-83.2-1.2-111.8-3-14.3-.9-25.8-1.8-33.8-2.6-4-.4-7.1-.7-9.2-1-2.1-.3-3.2-.4-3.2-.6 0-.1 1.1-.1 3.2-.1s5.2.2 9.2.4c8 .4 19.5.9 33.8 1.5 28.6 1.2 68 2.3 111.6 2 21.8-.1 42.6-.6 61.4-1.3 18.9-.6 35.9-1.5 50.2-2.1 14.3-.6 25.9-.6 33.9-.3 4 .2 7.1.4 9.2.6 2.3.3 3.4.5 3.4.6zM1093.9 249.4c0 .5-6.1.4-15.8 0-9.7-.4-23.1-1-37.9-1.6-14.8-.6-28.2-1.2-37.9-1.6-9.7-.5-15.7-.9-15.7-1.3s6-.8 15.8-1c9.7-.1 23.2 0 38 .6s28.3 1.6 37.9 2.6c9.7.9 15.7 1.8 15.6 2.3zM1279.7 270c0 .2-4 .4-11.1.6-7.2.2-17.5.3-30.3.3-25.6.1-61-.2-100-1-39.1-.9-74.4-2.2-100-3.4-12.8-.6-23.1-1.2-30.3-1.7-7.1-.5-11.1-.9-11.1-1.1 0-.2 4-.3 11.1-.2 7.2.1 17.5.3 30.3.6 25.6.6 60.9 1.5 100 2.4 39 .8 74.4 1.5 100 2 12.8.2 23.2.5 30.3.7 7.2.3 11.1.6 11.1.8zM1308.8 252.4c0 .2-2.5.3-6.9.3s-10.8-.1-18.6-.2c-15.7-.3-37.5-.6-61.5-.6s-45.7.2-61.5.4c-7.9.1-14.2.2-18.6.2-4.4 0-6.8-.1-6.9-.3 0-.2 2.4-.5 6.8-.9s10.8-.8 18.6-1.2c15.7-.8 37.5-1.4 61.5-1.4s45.8.7 61.5 1.6c7.9.4 14.2.8 18.6 1.2 4.6.4 7 .7 7 .9z"></path><path fill="#ddcfc3" d="M1229 568.1c-57.4-13.2-114.9-26.4-172.3-39.6-6.2-1.7-12.4-3.4-18.6-5.2 1.7-4.5 3.4-9 5.2-13.5 3.4-23.8 6.9-47.6 10.3-71.4 0-.8-.4-9.3 6.2-14.5 5.7-4.5 14.2-4.6 20.7 0 31.4 7.9 62.8 15.9 94.2 23.8 24.1 3.8 48.3 7.6 72.4 11.4-1.7 6.9-3.4 13.8-5.2 20.7-4.1 25.5-8.3 51-12.4 76.6-.2 3.9-.3 7.8-.5 11.7z"></path><path fill="#ff4f03" d="M1181.1 521.4c-1.2 3.2-3 9-1.9 16.1.8 5.4 1.9 7.1 2.6 7.7 1.8 1.8 3.9 2 10.3 2.5 8.4.7 12.6 1 13.5.7 7.3-2.7 12.2-13.8 9-19.3-1-1.7-2.8-2.8-16.1-5.2-7-1.1-12.9-1.9-17.4-2.5z"></path><path stroke="#000" stroke-miterlimit="10" d="M1038.3 526.6c-.5-.1.6-6.2 2.1-16.1.8-4.9 1.7-10.8 2.6-17.3.9-6.5 1.8-13.7 2.6-21.3.8-7.6 1.4-14.8 1.9-21.3.5-6.6.8-12.5 1-17.5.5-10 .8-16.1 1.2-16.2.4 0 1 6.2 1.1 16.2.1 5-.1 11-.4 17.6-.3 6.6-.8 13.9-1.6 21.5s-1.8 14.8-2.9 21.4c-1.1 6.5-2.2 12.4-3.3 17.3-2.1 9.9-3.9 15.8-4.3 15.7z"></path><ellipse cx="1155.8" cy="436.6" stroke="#000" stroke-miterlimit="10" rx="106.8" ry="1.6" transform="rotate(12.339 1155.54 436.311)"></ellipse><path stroke="#000" stroke-miterlimit="10" d="M1214.4 568.8c0 .2-2.5 0-6.9-.5-2.2-.3-4.9-.6-8.1-1.1-3.1-.5-6.7-1-10.6-1.6-7.9-1.3-17.2-2.9-27.6-4.9-10.3-2-21.7-4.4-33.5-7.2s-23.1-5.7-33.2-8.4c-10.2-2.8-19.3-5.4-26.9-7.8-3.8-1.2-7.2-2.3-10.2-3.3-3-1-5.6-1.9-7.7-2.6-4.2-1.5-6.5-2.4-6.4-2.6.1-.2 2.5.3 6.8 1.4 4.3 1.2 10.5 2.8 18.2 4.9 7.7 2.1 16.8 4.5 27 7.1 10.2 2.6 21.4 5.4 33.2 8.2 11.8 2.8 23.1 5.2 33.4 7.4 10.3 2.2 19.6 4.1 27.4 5.6 7.8 1.6 14.1 2.8 18.5 3.7 4.2.9 6.6 1.5 6.6 1.7z"></path><ellipse cx="1247.1" cy="519.8" stroke="#000" stroke-miterlimit="10" rx="53" ry="1.6" transform="rotate(101.689 1247.023 519.778)"></ellipse><path stroke="#000" stroke-miterlimit="10" d="M1118.4 515.7c-.4.2-3.5-5.2-8.6-13.7-2.5-4.3-5.7-9.3-9.2-14.8-3.6-5.5-7.6-11.5-12-17.7-4.4-6.2-8.8-11.9-12.8-17.1-4.1-5.1-7.8-9.7-11-13.5-6.4-7.6-10.5-12.2-10.2-12.6.3-.3 5 3.8 11.9 11 3.5 3.6 7.4 8.1 11.7 13.2 4.2 5.1 8.7 10.9 13.1 17.1 4.4 6.2 8.4 12.3 11.9 18 3.4 5.7 6.4 10.9 8.7 15.3 4.6 8.8 6.9 14.6 6.5 14.8zM1241.9 468.6c.1.4-6.6 3-17.5 6.9-10.9 3.9-26 9.3-42.6 15.4s-31.6 11.8-42.4 15.9c-10.8 4.1-17.6 6.6-17.8 6.1-.2-.4 6.3-3.6 16.9-8.3 10.6-4.7 25.5-10.7 42.2-16.8 16.6-6.1 31.9-11.1 43-14.5 11-3.3 18-5.1 18.2-4.7zM1172 547.1c-.9 0-1.7-6.1-.4-13.4 1.3-7.4 4.2-12.8 5-12.5.9.3-.5 6-1.8 13-1.2 7.1-1.8 12.9-2.8 12.9zM1220.1 530.6c-.3.9-9.5-1.7-20.8-4.5-11.3-2.9-20.6-5-20.4-5.9.1-.9 9.7-.2 21.2 2.7 11.5 2.9 20.3 6.9 20 7.7zM1213.2 549.8c0 .9-8.9 1-19.6-.7-10.7-1.8-19.1-4.8-18.8-5.6.2-.9 8.8.7 19.4 2.4 10.5 1.7 19.1 3 19 3.9z"></path><ellipse cx="1213.2" cy="540.9" stroke="#000" stroke-miterlimit="10" rx="11.1" ry="1.6" transform="rotate(111.334 1213.22 540.98)"></ellipse><path stroke="#000" stroke-miterlimit="10" d="M1025.5 532.9c-.9-.3 1.5-10.1 3.4-22.4 1.9-12.3 2.6-22.4 3.5-22.4.9 0 1.7 10.3-.3 22.9-1.9 12.6-5.8 22.2-6.6 21.9zM1016.5 531.1c-.9-.4.7-5.8 1.9-12.6s1.7-12.5 2.6-12.5c.4 0 .9 1.4 1.1 3.8.2 2.4.1 5.7-.5 9.3-.6 3.6-1.7 6.7-2.7 8.9-1 2.1-2 3.3-2.4 3.1zM1125.1 415.3c-.3.9-16.5-3.3-36.8-7.2-20.3-3.9-36.9-6-36.8-7 .1-.9 17-.2 37.4 3.8 20.5 3.9 36.4 9.6 36.2 10.4z"></path><ellipse cx="1117.9" cy="405.8" stroke="#000" stroke-miterlimit="10" rx="28" ry="1.6" transform="rotate(15.762 1117.898 405.906)"></ellipse><path fill="#ff4f03" d="M1070.7 756.4c-5.2-10.5-10.5-21-15.7-31.4 2.5-2.5 6.2-5.9 11.4-9 7.6-4.6 11.2-4.2 13.3-8.1 1.2-2.2 1.1-4.1-1-16.7-2.1-13-2.9-16.3-1.9-16.7 1.5-.6 5.8 5.9 11 13.8 1.4 2.1 2.5 4 3.3 5.2 3.7-1.9 10.6-4.8 19.5-4.8 5.1 0 8.6.1 11.9 2.4 1.6 1.1 3.6 3.1 8.1 24.3 1.3 6.1 1.6 8 1 10.5-.4 1.7-1.9 6.5-10 11.9-12.5 8.4-27.6 9.5-35.2 9.5-5.3 3.1-10.5 6.1-15.7 9.1z"></path><path stroke="#000" stroke-miterlimit="10" d="M1064.3 756.5c-.9.4-5.1-7.4-10.9-16.6-5.8-9.2-11-16.4-10.3-17 .6-.6 7.1 5.8 13 15.2 6 9.5 9 18.1 8.2 18.4zM1085.9 747.8c-.4.2-1.9-3-4.6-7.9-1.3-2.4-2.9-5.3-4.9-8.4-2-3.1-4.2-6.5-6.9-9.4-2.7-3-5.9-5.2-9.2-5.7-3.2-.6-6.3.4-8.7 1.5-2.4 1.1-4.3 2.3-5.7 3.1-1.4.8-2.2 1.2-2.3 1-.1-.2.4-.9 1.5-2 1.2-1.1 2.9-2.6 5.4-4.1 1.3-.7 2.7-1.5 4.5-1.9 1.7-.5 3.7-.7 5.8-.4 2.1.2 4.1 1.1 6 2.2 1.9 1.1 3.6 2.6 5.1 4.3 1.5 1.6 2.8 3.4 4 5.1 1.1 1.7 2.2 3.4 3.1 5 1.9 3.3 3.3 6.3 4.4 8.9 2.2 5.1 2.9 8.6 2.5 8.7z"></path><path stroke="#000" stroke-miterlimit="10" d="M1085 749.8c.3.4-.5 1.5-2.3 2.8-1.7 1.3-4.4 2.8-7.6 3.7-3.2.9-6.2 1.1-8.4.9-2.2-.2-3.4-.7-3.4-1.2.1-.9 5.1-1.1 10.9-2.9 5.8-1.6 10.2-4.1 10.8-3.3zM1079.7 705.2c.1.9-4.1 2-8.9 4-4.8 1.9-8.5 4.1-9.1 3.4-.3-.3.3-1.4 1.7-2.6 1.4-1.3 3.5-2.7 6.2-3.8 2.6-1.1 5.2-1.6 7-1.6 1.9-.1 3 .2 3.1.6zM1074.1 672.6c.9.3-.6 6.5-.2 14.2.4 7.7 2.6 13.7 1.7 14.1-.4.2-1.5-1.1-2.6-3.6s-2.1-6.2-2.4-10.3c-.2-4.2.4-7.9 1.2-10.5.9-2.6 1.9-4 2.3-3.9zM1092.2 698.4c-.9.3-3.4-5.9-7.9-12.4-4.5-6.6-9.3-11.2-8.7-11.9.3-.3 1.9.4 4.1 2.1 2.2 1.7 4.9 4.5 7.3 8 2.4 3.5 4 7.1 4.8 9.7.7 2.6.8 4.3.4 4.5z"></path><path stroke="#000" stroke-miterlimit="10" d="M1125.7 688.1c-.2.1-.6-.3-1.3-.5-.7-.2-1.9-.2-3.4.1-3.2.8-7.8 1.7-12.9 2.5-2.5.4-5 .7-7.1 1.1-2.1.4-4 .8-5.4 1.4-3 1.1-4.5 2.5-4.9 2.1-.2-.1 0-.7.6-1.5s1.7-1.8 3.2-2.7c1.6-.9 3.6-1.7 5.8-2.2 2.2-.6 4.7-1 7.2-1.4 5.1-.8 9.6-1.4 13.1-1.6 1.8-.1 3.5.3 4.4 1.1.4.4.7.8.7 1.1.2.3.1.5 0 .5zM1132.5 731.4c-.4-.2.5-2.5 1.1-6.2.6-3.7.5-9-1-14.6s-3.9-10.4-5.6-13.9c-1.7-3.5-2.7-5.8-2.4-6 .4-.2 2.1 1.6 4.3 4.8 2.2 3.3 5.1 8.2 6.8 14.2 1.7 6.1 1.4 12 .1 15.9-1.2 4.1-3 6-3.3 5.8zM1128.4 732.4c.3.3-1.1 2.3-4.1 4.9-1.5 1.3-3.3 2.7-5.5 4.1-2.2 1.4-4.7 2.7-7.5 3.9-2.8 1.2-5.5 2-8 2.7-2.5.6-4.8 1-6.8 1.2-3.9.3-6.3 0-6.3-.4-.1-1 9.4-1.9 19.9-6.4 10.5-4.5 17.6-10.7 18.3-10z"></path><ellipse cx="1041.6" cy="684.2" stroke="#000" stroke-miterlimit="10" rx="7.3" ry="1.6" transform="rotate(57.364 1041.619 684.184)"></ellipse><ellipse cx="1053" cy="689.1" stroke="#000" stroke-miterlimit="10" rx="1.6" ry="4.6"></ellipse></g></svg>