<svg width="139" height="112" viewBox="0 0 139 112" fill="none" xmlns="http://www.w3.org/2000/svg">
<mask id="mask0_616_60" style="mask-type:luminance" maskUnits="userSpaceOnUse" x="0" y="0" width="139" height="112">
<path d="M138.95 0H0V111.44H138.95V0Z" fill="white"/>
</mask>
<g mask="url(#mask0_616_60)">
<path opacity="0.3" d="M53.79 69.0199L53.33 70.4199C53.69 71.0699 53.93 71.0699 54.66 71.1699C58.18 71.5699 61.65 70.0699 63.78 67.2299C64.12 66.8099 64.2 66.6999 64.23 66.3099C64.3 65.2999 64.09 64.2899 63.62 63.3899L63.13 62.3899C63.13 62.3899 64.86 66.6899 58.69 68.4699C52.52 70.2499 53.79 69.0199 53.79 69.0199Z" fill="#262626"/>
<path opacity="0.3" d="M80.33 107.77C80.33 109.77 67.63 111.44 51.97 111.44C36.31 111.44 23.62 109.8 23.62 107.77C23.62 106.7 27.17 105.77 32.85 105.06C33.78 104.95 33.6 106.22 33.85 107.24C34.03 108.3 34.98 109.04 36.05 108.97C37.34 108.89 36.84 111.68 43.5 109.76C44.81 109.06 45.86 107.96 46.5 106.63C47.05 105.42 46.64 104.16 47.28 104.14C48.8 104.14 50.37 104.09 51.97 104.09C54.26 104.09 52.97 104.09 55.07 104.2C55.88 104.2 55.61 106.53 56.87 107.94C58.37 109.33 60.27 110.22 62.3 110.49C63.92 110.59 66.3 109.08 67.3 108.69C67.82 108.48 69.41 104.87 69.93 104.92C76.28 105.6 80.33 106.63 80.33 107.77Z" fill="#262626"/>
<path d="M28.51 47.71L28.67 39.66C28.67 38.4 29.69 37.37 30.95 37.36H30.96L35.41 37.26" stroke="#8B8B8B" stroke-linecap="round" stroke-linejoin="round"/>
<path d="M51.17 6.0601L51.25 8.2101" stroke="#8B8B8B" stroke-linecap="round" stroke-linejoin="round"/>
<path d="M51.18 5.9C52.6601 5.9 53.86 4.6912 53.86 3.2C53.86 1.7088 52.6601 0.5 51.18 0.5C49.6999 0.5 48.5 1.7088 48.5 3.2C48.5 4.6912 49.6999 5.9 51.18 5.9Z" stroke="#8B8B8B" stroke-linecap="round" stroke-linejoin="round"/>
<path d="M51.18 5.9C52.6601 5.9 53.86 4.6912 53.86 3.2C53.86 1.7088 52.6601 0.5 51.18 0.5C49.6999 0.5 48.5 1.7088 48.5 3.2C48.5 4.6912 49.6999 5.9 51.18 5.9Z" fill="#FF8853" stroke="#8B8B8B" stroke-linecap="round" stroke-linejoin="round"/>
<path d="M67.53 71.8401L68.45 85.7201L68.76 89.5201L69.31 102.91C69.42 106.66 66.47 109.8 62.71 109.91C62.65 109.91 62.59 109.91 62.53 109.91C58.88 109.91 55.89 107.02 55.74 103.38L53.59 86.5701C53.41 85.3101 52.34 84.3601 51.06 84.3301C49.72 84.3301 48.59 85.3301 48.45 86.6601L46.91 103.15C46.91 106.91 43.87 109.97 40.11 109.98C36.35 109.97 33.3 106.91 33.31 103.15L34.22 72.5701" stroke="#8B8B8B" stroke-linecap="round" stroke-linejoin="round"/>
<path d="M49.24 74.4201C50.29 76.9801 51.96 77.2301 54.56 77.2301C55.96 77.0801 57.34 76.7701 58.66 76.3001C72.53 70.5801 76.21 65.4101 76.84 58.3901C77.67 49.2401 71.16 42.3901 67.05 39.0601" stroke="#8B8B8B" stroke-linecap="round" stroke-linejoin="round"/>
<path d="M67.45 52.1799C66.2 55.6699 62.86 59.5199 59.24 61.8899" stroke="#8B8B8B" stroke-linecap="round" stroke-linejoin="round"/>
<g opacity="0.7">
<path d="M53.12 65.1899C53.34 63.7799 54.49 63.0999 56.7 62.2599C59.45 61.2099 61.98 61.2599 62.59 62.8299C63.2 64.3999 61.7 66.7599 58.95 67.8299C57.06 68.5499 55.54 69.2699 54.35 68.6999" fill="url(#paint0_linear_616_60)"/>
</g>
<path d="M53.8 68.8599C55.44 69.1799 57.14 68.9799 58.66 68.2899C61.66 67.0399 63.66 64.7699 63.05 63.1999C62.44 61.6299 59.43 61.3799 56.37 62.6199C55.05 63.0999 53.86 63.8799 52.9 64.9099" stroke="#8B8B8B" stroke-linecap="round" stroke-linejoin="round"/>
<path d="M36.73 38.97L34.05 40.69C28.55 45.96 25.37 53.19 25.21 60.8C25.15 63.56 27.33 72.8 44.91 74.8H46.24C49.93 74.8 53.74 72.89 53.76 68.6C53.81 67.86 53.73 67.11 53.53 66.39C52.75 64.04 50.78 62.7 46.58 62.28C41.12 61.73 37.81 58.08 36.03 57.48" stroke="#8B8B8B" stroke-linecap="round" stroke-linejoin="round"/>
<path d="M57.89 68.6599C57.89 68.6599 60.95 72.5399 61.24 75.0799" stroke="#8B8B8B" stroke-linecap="round" stroke-linejoin="round"/>
<path d="M60.99 67.23C60.99 67.23 63.91 70.9 64.2 73.44" stroke="#8B8B8B" stroke-linecap="round" stroke-linejoin="round"/>
<path d="M32.85 41.8C35.93 46.37 37.34 51.85 36.85 57.34" stroke="#8B8B8B" stroke-linecap="round" stroke-linejoin="round"/>
<path d="M36.17 39.23C36.17 39.23 41.59 46.44 40.33 59.42" stroke="#8B8B8B" stroke-linecap="round" stroke-linejoin="round"/>
<path d="M66.45 53.8101C66.45 53.8101 64.78 44.9701 67.83 39.5801" stroke="#8B8B8B" stroke-linecap="round" stroke-linejoin="round"/>
<path d="M64.06 57.4901C61.84 53.0201 61.33 47.8901 62.64 43.0801" stroke="#8B8B8B" stroke-linecap="round" stroke-linejoin="round"/>
<path d="M51.75 46.4001C62.2048 46.4001 70.68 37.8846 70.68 27.3801C70.68 16.8757 62.2048 8.36011 51.75 8.36011C41.2953 8.36011 32.82 16.8757 32.82 27.3801C32.82 37.8846 41.2953 46.4001 51.75 46.4001Z" stroke="#8B8B8B" stroke-linecap="round" stroke-linejoin="round"/>
<path d="M115.33 22.6699L102.98 42.9699C102.98 42.9699 115.38 40.0699 103.98 56.5699L95.91 71.2799C95.62 71.6899 95.72 72.2599 96.13 72.5499C96.37 72.7199 96.68 72.7599 96.96 72.6599C102.49 70.6599 114.04 67.9799 110.08 81.7299C109.94 82.2099 110.22 82.7199 110.7 82.8599C110.92 82.9199 111.16 82.8999 111.36 82.7999C117.54 79.6699 135.65 74.6899 124.8 97.8C124.58 98.25 124.77 98.8 125.22 99.02C125.4 99.11 125.6 99.13 125.8 99.09H138.45" stroke="#8B8B8B" stroke-linecap="round" stroke-linejoin="round"/>
<path d="M33.79 80.7499C33.79 80.7499 4.67 76.9699 8.5 98.97L0.5 99.1" stroke="#8B8B8B" stroke-linecap="round" stroke-linejoin="round"/>
<path d="M22.1682 74.4596C23.8437 72.0191 24.0539 69.2526 22.6379 68.2805C21.2219 67.3084 18.7158 68.4988 17.0403 70.9392C15.3649 73.3797 15.1546 76.1462 16.5707 77.1183C17.9867 78.0905 20.4928 76.9001 22.1682 74.4596Z" stroke="#8B8B8B" stroke-linecap="round" stroke-linejoin="round"/>
<path d="M128.39 42.8L129.39 43.35L128.39 43.91L127.85 44.93L127.3 43.91L126.31 43.35L127.3 42.8L127.85 41.78L128.39 42.8Z" fill="#8B8B8B"/>
<path d="M83.14 30.23L84.14 30.79L83.14 31.34L82.59 32.36L82.05 31.34L81.05 30.79L82.05 30.23L82.59 29.21L83.14 30.23Z" fill="#8B8B8B"/>
<path d="M101.26 21.1201L102.26 21.6801L101.26 22.2401L100.72 23.2601L100.17 22.2401L99.18 21.6801L100.17 21.1201L100.72 20.1001L101.26 21.1201Z" fill="#8B8B8B"/>
<path d="M12.88 54.3301L13.88 54.8901L12.88 55.4501L12.33 56.4701L11.79 55.4501L10.79 54.8901L11.79 54.3301L12.33 53.3101L12.88 54.3301Z" fill="#8B8B8B"/>
<path d="M18.62 22.9699C19.8737 22.9699 20.89 21.9491 20.89 20.6899C20.89 19.4307 19.8737 18.4099 18.62 18.4099C17.3663 18.4099 16.35 19.4307 16.35 20.6899C16.35 21.9491 17.3663 22.9699 18.62 22.9699Z" stroke="#8B8B8B" stroke-linecap="round" stroke-linejoin="round"/>
<path d="M54.93 66.6L58.69 64.74" stroke="#8B8B8B" stroke-linecap="round" stroke-linejoin="round"/>
<path d="M58.08 63.3799L59.53 65.8299L61.01 63.4499L58.08 63.3799Z" stroke="#8B8B8B" stroke-linecap="round" stroke-linejoin="round"/>
<path d="M49.08 57.8401L51.8 61.6201" stroke="#8B8B8B" stroke-linecap="round" stroke-linejoin="round"/>
<path d="M53.05 57.1201L53.86 60.5901" stroke="#8B8B8B" stroke-linecap="round" stroke-linejoin="round"/>
<path d="M69.26 19.73C66.57 19.43 63.86 19.37 61.16 19.56C53.5 20.12 50.34 23.13 49.08 25.14C48.52 26.4 48.34 27.78 48.55 29.14C49.03 32.67 52.66 40.97 65.37 40.61" stroke="#8B8B8B" stroke-linecap="round" stroke-linejoin="round"/>
<path d="M58.84 49.4299H54.77C54.5325 49.4299 54.34 49.6224 54.34 49.8599V54.0699C54.34 54.3074 54.5325 54.4999 54.77 54.4999H58.84C59.0775 54.4999 59.27 54.3074 59.27 54.0699V49.8599C59.27 49.6224 59.0775 49.4299 58.84 49.4299Z" stroke="#8B8B8B" stroke-linecap="round" stroke-linejoin="round"/>
<path d="M118.9 68.3701C120.154 68.3701 121.17 67.3493 121.17 66.0901C121.17 64.8308 120.154 63.8101 118.9 63.8101C117.646 63.8101 116.63 64.8308 116.63 66.0901C116.63 67.3493 117.646 68.3701 118.9 68.3701Z" stroke="#8B8B8B" stroke-linecap="round" stroke-linejoin="round"/>
<path d="M40.39 31.48C41.9806 31.48 43.27 30.1906 43.27 28.6C43.27 27.0094 41.9806 25.72 40.39 25.72C38.7994 25.72 37.51 27.0094 37.51 28.6C37.51 30.1906 38.7994 31.48 40.39 31.48Z" stroke="#8B8B8B" stroke-linecap="round" stroke-linejoin="round"/>
</g>
<defs>
<linearGradient id="paint0_linear_616_60" x1="65.2036" y1="66.601" x2="71.6004" y2="71.0469" gradientUnits="userSpaceOnUse">
<stop stop-color="#FF7002"/>
<stop offset="0.3" stop-color="#FE7304"/>
<stop offset="0.5" stop-color="#FC7C0A"/>
<stop offset="0.68" stop-color="#F88B15"/>
<stop offset="0.84" stop-color="#F3A125"/>
<stop offset="0.98" stop-color="#ECBD39"/>
<stop offset="1" stop-color="#EBC03B"/>
</linearGradient>
</defs>
</svg>
